<svg width="382" height="400" viewBox="0 0 382 400" fill="none" xmlns="http://www.w3.org/2000/svg">
<g clip-path="url(#clip0_110_304)">
<path d="M147.771 400C229.382 400 295.541 388.304 295.541 373.877C295.541 359.449 229.382 347.753 147.771 347.753C66.1591 347.753 0 359.449 0 373.877C0 388.304 66.1591 400 147.771 400Z" fill="#3F3D56"/>
<path d="M237.583 289.035C317.342 289.035 382 224.333 382 144.518C382 64.7028 317.342 0 237.583 0C157.823 0 93.165 64.7028 93.165 144.518C93.165 224.333 157.823 289.035 237.583 289.035Z" fill="#3F3D56"/>
<path opacity="0.05" d="M237.583 263.822C303.427 263.822 356.804 210.407 356.804 144.518C356.804 78.6279 303.427 25.2137 237.583 25.2137C171.739 25.2137 118.361 78.6279 118.361 144.518C118.361 210.407 171.739 263.822 237.583 263.822Z" fill="black"/>
<path opacity="0.05" d="M237.582 242.298C291.547 242.298 335.295 198.52 335.295 144.518C335.295 90.5153 291.547 46.7376 237.582 46.7376C183.617 46.7376 139.87 90.5153 139.87 144.518C139.87 198.52 183.617 242.298 237.582 242.298Z" fill="black"/>
<path opacity="0.05" d="M191.058 270.213C229.75 270.213 261.116 238.825 261.116 200.106C261.116 161.388 229.75 130 191.058 130C152.366 130 121 161.388 121 200.106C121 238.825 152.366 270.213 191.058 270.213Z" fill="black"/>
<path d="M94.4439 157.451C94.4439 157.451 83.0898 189.433 88.1361 200.795C93.1824 212.157 101.172 223.098 101.172 223.098C101.172 223.098 98.2287 159.555 94.4439 157.451Z" fill="#D0CDE1"/>
<path opacity="0.1" d="M94.4439 157.451C94.4439 157.451 83.0898 189.433 88.1361 200.795C93.1824 212.157 101.172 223.098 101.172 223.098C101.172 223.098 98.2287 159.555 94.4439 157.451Z" fill="black"/>
<path d="M102.434 231.514C102.434 231.514 101.593 239.51 101.172 239.931C100.752 240.351 101.593 241.193 101.172 242.456C100.752 243.718 100.331 245.401 101.172 245.822C102.013 246.243 96.5465 283.275 96.5465 283.275C96.5465 283.275 83.0897 300.949 88.5565 328.722L90.2386 356.917C90.2386 356.917 103.275 357.759 103.275 353.13C103.275 353.13 102.434 347.659 102.434 345.134C102.434 342.609 104.536 342.609 103.275 341.347C102.013 340.084 102.013 339.243 102.013 339.243C102.013 339.243 104.116 337.56 103.695 337.139C103.275 336.718 107.48 306.84 107.48 306.84C107.48 306.84 112.106 302.211 112.106 299.686V297.161C112.106 297.161 114.208 291.691 114.208 291.27C114.208 290.849 125.563 265.179 125.563 265.179L130.188 283.695L135.235 310.207C135.235 310.207 137.758 334.193 142.804 343.451C142.804 343.451 151.635 373.75 151.635 372.908C151.635 372.066 166.353 369.962 165.933 366.175C165.512 362.388 157.102 309.365 157.102 309.365L159.204 230.673L102.434 231.514Z" fill="#2F2E41"/>
<path d="M91.0796 354.813C91.0796 354.813 79.7254 377.116 87.2949 377.958C94.8643 378.799 97.8079 378.799 101.172 375.433C103.011 373.592 106.736 371.123 109.735 369.262C111.511 368.178 112.947 366.614 113.876 364.75C114.805 362.887 115.191 360.799 114.989 358.726C114.767 356.667 113.998 354.971 112.106 354.813C107.059 354.392 101.172 349.763 101.172 349.763L91.0796 354.813Z" fill="#2F2E41"/>
<path d="M153.738 371.225C153.738 371.225 142.384 393.528 149.953 394.369C157.522 395.211 160.466 395.211 163.83 391.845C165.67 390.004 169.394 387.535 172.393 385.674C174.17 384.59 175.605 383.026 176.534 381.162C177.463 379.299 177.849 377.211 177.647 375.138C177.425 373.079 176.656 371.382 174.764 371.225C169.718 370.804 163.83 366.175 163.83 366.175L153.738 371.225Z" fill="#2F2E41"/>
<path d="M141.738 120.952C151.501 120.952 159.415 113.033 159.415 103.263C159.415 93.4934 151.501 85.5736 141.738 85.5736C131.975 85.5736 124.061 93.4934 124.061 103.263C124.061 113.033 131.975 120.952 141.738 120.952Z" fill="#FFB8B8"/>
<path d="M130.374 109.075C130.374 109.075 117.747 132.324 116.737 132.324C115.727 132.324 139.465 139.905 139.465 139.905C139.465 139.905 146.031 117.667 147.041 115.646L130.374 109.075Z" fill="#FFB8B8"/>
<path d="M149.743 134.517C149.743 134.517 124.511 120.63 121.988 121.051C119.465 121.471 92.5516 145.037 92.9722 154.716C93.3927 164.394 96.7569 180.385 96.7569 180.385C96.7569 180.385 98.0184 224.992 100.542 225.413C103.065 225.833 100.121 233.408 100.962 233.408C101.803 233.408 159.835 233.408 160.256 232.146C160.676 230.883 149.743 134.517 149.743 134.517Z" fill="#D0CDE1"/>
<path d="M163.83 234.46C163.83 234.46 171.82 258.867 165.092 258.026C158.364 257.184 155.42 236.985 155.42 236.985L163.83 234.46Z" fill="#FFB8B8"/>
<path d="M142.384 133.044C142.384 133.044 126.824 136.41 129.348 157.451C131.871 178.492 136.496 199.532 136.496 199.532L152.056 233.618L153.738 239.931L165.092 236.985L156.682 188.17C156.682 188.17 153.738 135.99 149.953 134.306C147.567 133.288 144.971 132.855 142.384 133.044Z" fill="#D0CDE1"/>
<path opacity="0.1" d="M132.922 198.901L152.266 233.408L135.968 197.047L132.922 198.901Z" fill="black"/>
<path d="M159.336 98.0543L159.395 96.7026L162.082 97.3719C162.053 96.9379 161.931 96.5154 161.723 96.1334C161.515 95.7515 161.227 95.4193 160.878 95.1597L163.74 94.9995C161.338 91.584 158.27 88.691 154.719 86.4954C151.169 84.2997 147.211 82.8469 143.084 82.2248C136.892 81.3268 129.998 82.6262 125.753 87.2244C123.693 89.4547 122.399 92.291 121.479 95.1845C119.784 100.514 119.438 106.867 122.973 111.199C126.566 115.601 132.842 116.464 138.496 117.009C140.485 117.2 142.57 117.379 144.413 116.606C144.619 114.49 144.348 112.355 143.621 110.357C143.319 109.739 143.174 109.055 143.2 108.367C143.452 106.684 145.695 106.26 147.381 106.487C149.066 106.715 151.093 107.062 152.2 105.771C152.963 104.881 152.918 103.586 153.019 102.418C153.295 99.2379 159.308 98.7209 159.336 98.0543Z" fill="#2F2E41"/>
<path d="M267.759 377.472C279.135 377.472 288.356 368.244 288.356 356.86C288.356 345.477 279.135 336.249 267.759 336.249C256.384 336.249 247.163 345.477 247.163 356.86C247.163 368.244 256.384 377.472 267.759 377.472Z" fill="#981B1B"/>
<path d="M25.8659 370.282C37.2412 370.282 46.4628 361.054 46.4628 349.67C46.4628 338.287 37.2412 329.059 25.8659 329.059C14.4906 329.059 5.26904 338.287 5.26904 349.67C5.26904 361.054 14.4906 370.282 25.8659 370.282Z" fill="#981B1B"/>
<path d="M25.866 337.208C34.0668 337.208 40.7149 330.555 40.7149 322.349C40.7149 314.142 34.0668 307.49 25.866 307.49C17.6652 307.49 11.0171 314.142 11.0171 322.349C11.0171 330.555 17.6652 337.208 25.866 337.208Z" fill="#981B1B"/>
<path d="M25.8661 309.886C31.686 309.886 36.404 305.165 36.404 299.341C36.404 293.517 31.686 288.796 25.8661 288.796C20.0461 288.796 15.3281 293.517 15.3281 299.341C15.3281 305.165 20.0461 309.886 25.8661 309.886Z" fill="#981B1B"/>
</g>
<defs>
<clipPath id="clip0_110_304">
<rect width="382" height="400" fill="white"/>
</clipPath>
</defs>
</svg>
