<svg width="245" height="174" viewBox="0 0 245 174" fill="none" xmlns="http://www.w3.org/2000/svg">
<g clip-path="url(#clip0_30_362)">
<path opacity="0.1" d="M81.4524 173.445C93.3838 173.445 103.056 171.891 103.056 169.975C103.056 168.059 93.3838 166.505 81.4524 166.505C69.5211 166.505 59.8489 168.059 59.8489 169.975C59.8489 171.891 69.5211 173.445 81.4524 173.445Z" fill="#981B1B"/>
<path opacity="0.1" d="M198.886 173.542C213.775 173.542 225.844 171.989 225.844 170.073C225.844 168.156 213.775 166.603 198.886 166.603C183.998 166.603 171.928 168.156 171.928 170.073C171.928 171.989 183.998 173.542 198.886 173.542Z" fill="#981B1B"/>
<path opacity="0.1" d="M3.06858 74.9828H25.5701V105.652H4.7159C4.66047 105.967 4.60726 106.284 4.54961 106.601H25.5701V131.335C25.5324 131.324 25.4991 131.311 25.4637 131.297C24.8695 131.062 24.2797 130.814 23.69 130.548L23.3131 130.377C22.7218 130.098 22.1306 129.802 21.5394 129.491C21.3332 129.382 21.127 129.269 20.923 129.154C17.6407 127.315 14.659 124.985 12.0812 122.245C12.0058 122.172 11.9348 122.094 11.8594 122.023C11.5003 121.633 11.1477 121.238 10.8063 120.835L10.4294 120.392C10.0259 119.897 9.63567 119.389 9.25655 118.875C9.20112 118.8 9.14791 118.724 9.09026 118.653C7.54837 116.515 6.2681 114.2 5.27683 111.758C5.24579 111.685 5.21918 111.605 5.19036 111.536C4.88588 110.753 4.61613 109.962 4.38111 109.164C4.27913 108.829 4.18157 108.499 4.09732 108.151C4.06628 108.049 4.03968 107.949 4.01529 107.849C2.75597 102.934 2.60742 97.8279 2.60742 92.7574C2.60742 92.1654 2.60742 91.5712 2.60742 90.9837C2.60742 88.9329 2.63181 86.8687 2.66728 84.8068C2.66728 84.2725 2.68945 83.7404 2.70054 83.2039C2.73158 81.8425 2.77592 80.4812 2.83357 79.1199C2.84687 78.7408 2.86461 78.3639 2.88456 77.987C2.88456 77.7697 2.89565 77.5524 2.91782 77.3351C2.97103 76.5459 3.01537 75.7632 3.06858 74.9828Z" fill="#981B1B"/>
<path opacity="0.1" d="M25.57 40.8348H13.2273C15.2337 37.6944 17.4259 34.6768 19.7922 31.7979C21.6257 29.5453 23.5613 27.3503 25.57 25.2352V40.8348Z" fill="#981B1B"/>
<path opacity="0.1" d="M25.57 41.7837V74.0339H3.1394C3.1394 73.9408 3.15492 73.8454 3.16158 73.7523C3.18153 73.4973 3.20148 73.2424 3.22365 72.9896C3.24804 72.6925 3.27465 72.3932 3.30347 72.1028C3.33229 71.8123 3.36333 71.4576 3.39659 71.1361C3.42985 70.8146 3.46089 70.4887 3.49858 70.1672C3.53627 69.8457 3.56952 69.5243 3.60943 69.205C3.64934 68.8857 3.68481 68.562 3.72694 68.2428C3.7602 67.9767 3.79567 67.7129 3.83114 67.4468C3.88214 67.0721 3.93535 66.6952 3.99299 66.3228C3.99299 66.2673 4.00851 66.2097 4.01738 66.1565C4.42205 63.4298 4.97343 60.7269 5.66913 58.0596C6.39736 55.2615 7.32729 52.5199 8.45161 49.8563C9.64656 47.0697 11.0457 44.3753 12.6375 41.7948L25.57 41.7837Z" fill="#981B1B"/>
<path opacity="0.1" d="M30.9421 74.9806V105.652H79.0025V74.9806H30.9421ZM30.9421 106.599V132.938C31.2171 132.996 31.4898 133.051 31.7603 133.098C32.1283 133.169 32.4941 133.233 32.8688 133.288C32.9398 133.3 33.0129 133.311 33.0905 133.317C33.2369 133.342 33.3876 133.362 33.5339 133.382C33.9042 133.433 34.2722 133.475 34.6425 133.508C34.8177 133.526 34.995 133.541 35.1724 133.555L35.6003 133.588C35.8331 133.606 36.0637 133.619 36.292 133.625C36.4339 133.625 36.5758 133.639 36.7222 133.643C36.833 133.643 36.9439 133.643 37.0592 133.643C37.1744 133.643 37.3385 133.643 37.4782 133.643C37.6689 133.643 37.8595 133.643 38.048 133.643H38.303C38.4936 133.643 38.6843 133.643 38.8728 133.625H38.8861C39.0169 133.625 39.1499 133.625 39.2829 133.608C39.3198 133.61 39.3569 133.61 39.3938 133.608C39.5046 133.608 39.6155 133.608 39.7219 133.592H39.7995L40.5422 133.535C40.7861 133.512 41.0322 133.484 41.2805 133.457L41.786 133.397C43.8426 133.109 45.8763 132.676 47.872 132.102C52.355 130.852 56.7405 129.103 61.2213 127.821C67.0146 126.169 73.4154 125.358 79.0136 127.378V106.599H30.9421ZM79.0025 40.8348V0.00222202C73.7407 -0.0547852 68.4932 0.560642 63.3874 1.83356C51.2177 4.89096 40.2984 11.5223 30.9421 19.9917V40.8326H33.3544V41.7793H30.9421V74.0339H79.0025V41.7815H43.2582V40.8348H79.0025ZM140.734 27.0422C137.723 26.9357 134.73 25.9824 132.023 24.5102C126.846 21.6945 122.711 17.3467 118.09 13.6774C108.49 6.03499 96.5842 1.42339 84.3702 0.279361V40.8348H152.979L153.149 40.6552L140.734 27.0422ZM146.984 25.9336L153.611 33.2057V24.0269C151.391 24.3018 149.447 24.9558 146.993 25.9247L146.984 25.9336ZM153.611 139.479V106.599H139.49C139.452 106.459 139.414 106.317 139.37 106.175C139.412 106.317 139.448 106.459 139.488 106.599H84.379V130.377C84.9023 130.765 85.4189 131.173 85.931 131.588C86.4831 132.031 87.0285 132.499 87.5761 132.958L88.1282 133.415C88.392 133.637 88.6581 133.858 88.9263 134.067C89.4584 134.498 89.9957 134.924 90.5382 135.344C90.8064 135.565 91.0814 135.765 91.3541 135.973C95.6834 139.283 100.25 142.271 105.018 144.911C106.087 145.502 107.165 146.079 108.253 146.642C108.978 147.012 109.707 147.38 110.439 147.737C111.539 148.274 112.647 148.791 113.765 149.289C124.067 153.914 134.961 157.087 146.135 158.719C148.616 159.085 151.108 159.374 153.608 159.583V139.476H153.83L153.611 139.479ZM84.379 41.7815V74.0339H153.62V41.7815H84.379ZM84.379 74.9806V105.652H153.62V74.9806H84.379ZM158.994 23.987V34.2256L167.452 24.9448C164.65 24.4925 161.83 24.1695 158.994 23.9759V23.987ZM158.994 74.9917V105.652H226.339V74.9806L158.994 74.9917ZM226.093 141.913L226.33 106.599H158.994V159.936C163.332 160.118 167.676 160.066 172.008 159.781H172.084C174.153 159.651 176.213 159.462 178.263 159.213H178.309C189.246 157.94 199.941 155.087 210.058 150.742M239.324 80.0312C239.072 79.4348 238.808 78.8428 238.539 78.2575C238.038 77.1489 237.508 76.0714 236.963 74.9939H231.708V105.652H244.993C244.987 96.9699 242.79 88.1015 239.331 80.0201L239.324 80.0312ZM231.708 106.61V136.984C235.451 133.397 238.613 129.293 240.89 124.602C243.628 118.953 244.88 112.836 244.982 106.606L231.708 106.61ZM231.708 66.0545V74.0361H236.471C235.03 71.2885 233.443 68.6204 231.715 66.0434L231.708 66.0545ZM186.036 30.0042C185.686 29.8712 185.335 29.7359 184.983 29.6051C181.265 28.2321 177.466 27.0904 173.607 26.1863L160.663 40.3914L160.415 40.6552L160.581 40.837H206.648C200.233 36.4207 193.316 32.7806 186.043 29.9931L186.036 30.0042ZM207.999 41.7926H159.938L158.994 42.6573V74.0339H167.273H167.286H226.348V58.8356C221.005 52.374 214.838 46.6405 208.005 41.7815L207.999 41.7926Z" fill="#981B1B"/>
<path opacity="0.1" d="M25.57 58.0507V74.0339H3.1394C3.1394 73.9407 3.15492 73.8454 3.16158 73.7523C3.18153 73.4973 3.20148 73.2424 3.22365 72.9896C3.24804 72.6925 3.27465 72.3932 3.30347 72.1028C3.33229 71.8123 3.36333 71.4576 3.39659 71.1361C3.42985 70.8146 3.46089 70.4887 3.49858 70.1672C3.53627 69.8457 3.56952 69.5243 3.60943 69.205C3.64934 68.8857 3.68481 68.562 3.72694 68.2428C3.7602 67.9767 3.79567 67.7129 3.83114 67.4468C3.88214 67.0721 3.93535 66.6952 3.99299 66.3227C3.99299 66.2673 4.00851 66.2097 4.01738 66.1565C4.42205 63.4298 4.97343 60.7269 5.66913 58.0596L25.57 58.0507Z" fill="#981B1B"/>
<path opacity="0.1" d="M3.06858 74.9828H25.5701V105.652H4.7159C4.66047 105.967 4.60726 106.284 4.54961 106.601H25.5701V131.335C25.5324 131.324 25.4991 131.311 25.4637 131.297C24.8695 131.062 24.2797 130.814 23.69 130.548L23.3131 130.377C22.7218 130.098 22.1306 129.802 21.5394 129.491C21.3332 129.382 21.127 129.269 20.923 129.154C17.6407 127.315 14.659 124.985 12.0812 122.245C12.0058 122.172 11.9348 122.094 11.8594 122.023C11.5003 121.633 11.1477 121.238 10.8063 120.835L10.4294 120.392C10.0259 119.897 9.63567 119.389 9.25655 118.875C9.20112 118.8 9.14791 118.724 9.09026 118.653C7.54837 116.515 6.2681 114.2 5.27683 111.758C5.24579 111.685 5.21918 111.605 5.19036 111.536C4.88588 110.753 4.61613 109.962 4.38111 109.164C4.27913 108.829 4.18157 108.499 4.09732 108.151C4.06628 108.049 4.03968 107.949 4.01529 107.849C2.75597 102.934 2.60742 97.8279 2.60742 92.7574C2.60742 92.1654 2.60742 91.5712 2.60742 90.9837C2.60742 88.9329 2.63181 86.8687 2.66728 84.8068C2.66728 84.2725 2.68945 83.7404 2.70054 83.2039C2.73158 81.8425 2.77592 80.4812 2.83357 79.1199C2.84687 78.7408 2.86461 78.3639 2.88456 77.987C2.88456 77.7697 2.89565 77.5524 2.91782 77.3351C2.97103 76.5459 3.01537 75.7632 3.06858 74.9828Z" fill="#981B1B"/>
<path opacity="0.1" d="M47.8609 46.3998V74.0339H30.9421V46.3998H33.3544V37.0435H43.256V46.3998H47.8609Z" fill="#981B1B"/>
<path opacity="0.1" d="M47.8609 74.9806H30.9443V105.65H47.8609V74.9806Z" fill="#981B1B"/>
<path opacity="0.1" d="M30.9421 106.601H47.8609V132.098C45.8652 132.671 43.8315 133.103 41.775 133.39L41.2695 133.453C41.0211 133.481 40.775 133.506 40.5312 133.53C40.2873 133.555 40.0345 133.572 39.7884 133.588H39.7108C39.6044 133.588 39.4891 133.601 39.3849 133.603H39.2718C39.1388 133.603 39.0058 133.617 38.8728 133.621C38.6843 133.632 38.4958 133.634 38.303 133.637C38.2209 133.637 38.1433 133.637 38.0613 133.637C37.8706 133.637 37.6822 133.637 37.4915 133.637H37.0725C36.9594 133.637 36.8507 133.637 36.7332 133.637L36.3053 133.621C36.0836 133.621 35.8442 133.597 35.6136 133.581L35.1879 133.55L34.658 133.501C34.2855 133.468 33.9153 133.426 33.5495 133.375L33.106 133.313L32.8843 133.282C32.5141 133.224 32.1482 133.162 31.7758 133.091C31.5031 133.045 31.2326 132.987 30.9577 132.932L30.9421 106.601Z" fill="#981B1B"/>
<path opacity="0.1" d="M153.62 43.1362H139.669V74.0317H153.62V43.1362Z" fill="#981B1B"/>
<path opacity="0.1" d="M153.622 74.9806V105.652H84.3789V92.4226H121.261V100.227H139.669V74.9806H153.622Z" fill="#981B1B"/>
<path opacity="0.1" d="M153.841 139.485H153.619V159.606C151.121 159.394 148.631 159.107 146.148 158.743C134.968 157.106 124.07 153.926 113.765 149.294C110.789 147.955 107.874 146.493 105.02 144.908C100.253 142.267 95.685 139.28 91.3539 135.971C90.2661 135.138 89.1923 134.285 88.1325 133.413C87.3986 132.807 86.6692 132.187 85.9309 131.584C85.4187 131.169 84.9021 130.761 84.3789 130.371V106.601H139.485C139.448 106.459 139.41 106.317 139.37 106.178C139.412 106.317 139.452 106.459 139.49 106.601H153.619V139.472C153.695 139.474 153.768 139.481 153.841 139.485Z" fill="#981B1B"/>
<path opacity="0.1" d="M190.002 40.8348H180.912V38.0102H184.987V29.5963C185.34 29.7248 185.692 29.8571 186.043 29.9931V38.0102H190.002V40.8348Z" fill="#981B1B"/>
<path opacity="0.1" d="M211.903 74.0339H167.277C167.277 74.0339 167.277 74.0339 167.292 74.045L167.272 74.0339H158.994V43.1384H161.339V65.9747H172.059V52.4503H180.914V41.7837H190.004V52.4591H198.86V65.9835H211.903V74.0339Z" fill="#981B1B"/>
<path opacity="0.1" d="M158.994 74.9806V105.652H211.903V74.9806H158.994ZM226.265 141.756L226.339 117.478H211.903V106.614H158.994V159.936C163.331 160.118 167.676 160.066 172.008 159.781H172.084C174.153 159.651 176.213 159.462 178.263 159.213H178.309C189.246 157.94 199.941 155.087 210.058 150.742" fill="#981B1B"/>
<path opacity="0.1" d="M232.648 106.601H244.991C244.883 112.829 243.632 118.946 240.896 124.595C238.619 129.289 235.455 133.393 231.717 136.978V117.467H232.648V106.601Z" fill="#981B1B"/>
<path opacity="0.1" d="M244.998 105.652H232.648V80.0201H239.331C242.79 88.1015 244.987 96.9699 244.998 105.652Z" fill="#981B1B"/>
<path opacity="0.1" d="M153.622 51.7253H146.148V61.4118H153.622V51.7253Z" fill="#981B1B"/>
<path opacity="0.1" d="M153.622 71.8035H146.148V74.0339H153.622V71.8035Z" fill="#981B1B"/>
<path opacity="0.1" d="M153.622 74.9806H146.148V81.4878H153.622V74.9806Z" fill="#981B1B"/>
<path opacity="0.1" d="M153.622 91.8817H146.148V101.568H153.622V91.8817Z" fill="#981B1B"/>
<path opacity="0.1" d="M153.622 111.96H146.148V121.646H153.622V111.96Z" fill="#981B1B"/>
<path opacity="0.1" d="M153.619 139.472C153.695 139.472 153.768 139.472 153.841 139.485H153.619V141.736H146.148V132.038H153.619V139.472Z" fill="#981B1B"/>
<path opacity="0.1" d="M153.619 152.112V159.595C151.121 159.383 148.631 159.096 146.148 158.732V152.112H153.619Z" fill="#981B1B"/>
<path opacity="0.1" d="M116.41 104.94H84.3789V105.652H116.41V104.94Z" fill="#981B1B"/>
<path opacity="0.1" d="M116.41 106.599H84.3789V109.326H116.41V106.599Z" fill="#981B1B"/>
<path opacity="0.1" d="M116.41 118.265H84.3789V122.651H116.41V118.265Z" fill="#981B1B"/>
<path opacity="0.1" d="M116.407 131.59V135.976H91.354C90.2661 135.145 89.1916 134.292 88.1303 133.417C87.3964 132.812 86.6692 132.191 85.9287 131.59H116.407Z" fill="#981B1B"/>
<path opacity="0.1" d="M116.407 144.913V149.294H113.762C110.79 147.953 107.876 146.491 105.02 144.906L116.407 144.913Z" fill="#981B1B"/>
<path opacity="0.1" d="M178.316 77.9537H172.01V84.2592H178.316V77.9537Z" fill="#981B1B"/>
<path opacity="0.1" d="M41.7903 48.5748H35.4849V54.8802H41.7903V48.5748Z" fill="#981B1B"/>
<path opacity="0.1" d="M41.7903 63.221H35.4849V69.5265H41.7903V63.221Z" fill="#981B1B"/>
<path opacity="0.1" d="M41.7903 77.8673H35.4849V84.1728H41.7903V77.8673Z" fill="#981B1B"/>
<path opacity="0.1" d="M41.7903 92.5113H35.4849V98.8168H41.7903V92.5113Z" fill="#981B1B"/>
<path opacity="0.1" d="M41.7903 107.158H35.4849V113.463H41.7903V107.158Z" fill="#981B1B"/>
<path opacity="0.1" d="M41.7903 121.804H35.4849V128.109H41.7903V121.804Z" fill="#981B1B"/>
<path opacity="0.1" d="M202.387 77.9537H196.082V84.2592H202.387V77.9537Z" fill="#981B1B"/>
<path opacity="0.1" d="M178.316 93.5068H172.01V99.8123H178.316V93.5068Z" fill="#981B1B"/>
<path opacity="0.1" d="M202.387 93.5068H196.082V99.8123H202.387V93.5068Z" fill="#981B1B"/>
<path opacity="0.1" d="M178.316 109.058H172.01V115.363H178.316V109.058Z" fill="#981B1B"/>
<path opacity="0.1" d="M202.387 109.058H196.082V115.363H202.387V109.058Z" fill="#981B1B"/>
<path opacity="0.1" d="M178.316 124.611H172.01V130.916H178.316V124.611Z" fill="#981B1B"/>
<path opacity="0.1" d="M202.387 124.611H196.082V130.916H202.387V124.611Z" fill="#981B1B"/>
<path opacity="0.1" d="M178.316 140.164H172.01V146.469H178.316V140.164Z" fill="#981B1B"/>
<path opacity="0.1" d="M202.387 140.164H196.082V146.469H202.387V140.164Z" fill="#981B1B"/>
<path opacity="0.1" d="M172.01 159.781V155.715H178.314V159.202L172.01 159.781Z" fill="#981B1B"/>
<path opacity="0.1" d="M3.99072 66.152V69.7593H25.5699V66.152H3.99072ZM6.14132 69.5331H4.38094V66.3738H6.15463L6.14132 69.5331ZM8.28971 69.5331H6.51602V66.3738H8.28971V69.5331ZM10.4337 69.5331H8.65997V66.3738H10.4337V69.5331ZM12.582 69.5331H10.8106V66.3738H12.5843L12.582 69.5331ZM14.7282 69.5331H12.9545V66.3738H14.7282V69.5331ZM16.8766 69.5331H15.1029V66.3738H16.8766V69.5331ZM19.025 69.5331H17.2513V66.3738H19.025V69.5331ZM21.1711 69.5331H19.3974V66.3738H21.1711V69.5331ZM23.3173 69.5331H21.5436V66.3738H23.3173V69.5331ZM25.4635 69.5331H23.6898V66.3738H25.4635V69.5331Z" fill="#981B1B"/>
<path opacity="0.1" d="M3.99072 76.6479V80.2551H25.5699V76.6479H3.99072ZM6.14132 80.0267H4.38094V76.8762H6.15463L6.14132 80.0267ZM8.28971 80.0267H6.51602V76.8762H8.28971V80.0267ZM10.4337 80.0267H8.65997V76.8762H10.4337V80.0267ZM12.582 80.0267H10.8106V76.8762H12.5843L12.582 80.0267ZM14.7282 80.0267H12.9545V76.8762H14.7282V80.0267ZM16.8766 80.0267H15.1029V76.8762H16.8766V80.0267ZM19.025 80.0267H17.2513V76.8762H19.025V80.0267ZM21.1711 80.0267H19.3974V76.8762H21.1711V80.0267ZM23.3173 80.0267H21.5436V76.8762H23.3173V80.0267ZM25.4635 80.0267H23.6898V76.8762H25.4635V80.0267Z" fill="#981B1B"/>
<path opacity="0.1" d="M3.99072 87.1481V90.762H25.5699V87.1481H3.99072ZM6.14132 90.527H4.38094V87.3742H6.15463L6.14132 90.527ZM8.28971 90.527H6.51602V87.3742H8.28971V90.527ZM10.4337 90.527H8.65997V87.3742H10.4337V90.527ZM12.582 90.527H10.8106V87.3742H12.5843L12.582 90.527ZM14.7282 90.527H12.9545V87.3742H14.7282V90.527ZM16.8766 90.527H15.1029V87.3742H16.8766V90.527ZM19.025 90.527H17.2513V87.3742H19.025V90.527ZM21.1711 90.527H19.3974V87.3742H21.1711V90.527ZM23.3173 90.527H21.5436V87.3742H23.3173V90.527ZM25.4635 90.527H23.6898V87.3742H25.4635V90.527Z" fill="#981B1B"/>
<path opacity="0.1" d="M3.99072 97.6484V101.251H25.5699V97.6484H3.99072ZM6.14132 101.027H4.38094V97.8723H6.15463L6.14132 101.027ZM8.28971 101.027H6.51602V97.8723H8.28971V101.027ZM10.4337 101.027H8.65997V97.8723H10.4337V101.027ZM12.582 101.027H10.8106V97.8723H12.5843L12.582 101.027ZM14.7282 101.027H12.9545V97.8723H14.7282V101.027ZM16.8766 101.027H15.1029V97.8723H16.8766V101.027ZM19.025 101.027H17.2513V97.8723H19.025V101.027ZM21.1711 101.027H19.3974V97.8723H21.1711V101.027ZM23.3173 101.027H21.5436V97.8723H23.3173V101.027ZM25.4635 101.027H23.6898V97.8723H25.4635V101.027Z" fill="#981B1B"/>
<path opacity="0.1" d="M4.08398 108.146C4.17045 108.486 4.268 108.825 4.36999 109.16V108.373H6.14368V111.525H5.19476C5.22358 111.598 5.2524 111.678 5.28122 111.747H25.57V108.146H4.08398ZM8.2965 111.525H6.52281V108.373H8.2965V111.525ZM10.4405 111.525H8.66676V108.373H10.4405V111.525ZM12.5888 111.525H10.8107V108.373H12.5844L12.5888 111.525ZM14.735 111.525H12.9613V108.373H14.735V111.525ZM16.8834 111.525H15.1097V108.373H16.8834V111.525ZM19.0318 111.525H17.2581V108.373H19.0318V111.525ZM21.1779 111.525H19.4042V108.373H21.1779V111.525ZM23.3241 111.525H21.5504V108.373H23.3241V111.525ZM25.4703 111.525H23.6966V108.373H25.4703V111.525Z" fill="#981B1B"/>
<path opacity="0.1" d="M9.09448 118.647C9.14991 118.718 9.20312 118.797 9.26077 118.868H10.4336V120.383C10.56 120.533 10.6842 120.684 10.8127 120.826V118.86H12.5864V122.023H11.8681C11.939 122.096 12.0078 122.174 12.0898 122.245H25.5765V118.647H9.09448ZM14.7282 122.023H12.9545V118.873H14.7282V122.023ZM16.8766 122.023H15.1029V118.873H16.8766V122.023ZM19.0249 122.023H17.2512V118.873H19.0249V122.023ZM21.1711 122.023H19.3974V118.873H21.1711V122.023ZM23.3173 122.023H21.5436V118.873H23.3173V122.023ZM25.4634 122.023H23.6897V118.873H25.4634V122.023Z" fill="#981B1B"/>
<path opacity="0.1" d="M20.9319 129.145C21.1336 129.26 21.3398 129.366 21.5482 129.482V129.371H23.3219V130.369L23.6988 130.544V129.371H25.4725V131.289C25.5065 131.306 25.5422 131.319 25.579 131.329V129.145H20.9319Z" fill="#981B1B"/>
<path opacity="0.1" d="M139.37 106.175C139.412 106.317 139.448 106.459 139.487 106.599C139.452 106.459 139.414 106.317 139.37 106.175ZM33.363 40.8282V41.7749H43.2669V40.8282H33.363ZM139.37 106.175C139.412 106.317 139.448 106.459 139.487 106.599C139.452 106.459 139.414 106.317 139.37 106.175ZM139.37 106.175C139.412 106.317 139.448 106.459 139.487 106.599C139.452 106.459 139.414 106.317 139.37 106.175Z" fill="#981B1B"/>
<path d="M102.342 84.1772C102.342 84.1772 101.468 84.0552 101.468 82.7826C101.468 81.51 100.843 79.1332 100.843 79.1332C100.843 79.1222 100.302 74.9939 99.555 74.3376C98.8078 73.6814 97.8478 69.828 97.8478 69.828C97.8478 69.828 97.6838 67.7373 97.349 67.2872C97.0142 66.8371 96.5619 65.7352 95.8946 64.1633C95.2272 62.5914 92.4447 61.5028 92.4447 61.5028C92.4447 61.5028 87.4141 58.585 85.9885 57.6339C85.8589 57.5557 85.7378 57.4644 85.6271 57.3612C85.3788 57.0353 84.2968 57.0286 84.2968 57.0286C84.1838 56.3147 84.0751 55.4944 84.0396 54.7516C84.0396 54.6718 84.0396 54.592 84.0285 54.5122C85.6182 53.5725 86.8156 52.091 87.4008 50.3396C87.4274 50.2553 87.4496 50.1666 87.4739 50.0824C87.5692 50.051 87.6568 50.0001 87.7313 49.9329C87.8057 49.8657 87.8653 49.7837 87.9063 49.6922C88.0349 49.4062 88.0371 49.0714 88.1967 48.8053C88.383 48.4905 88.7377 48.322 89.0171 48.0848C89.7221 47.4862 89.9039 46.4774 89.8706 45.5595C89.8485 44.8168 89.7288 44.0674 89.7753 43.3291L89.7886 43.1428C89.8019 43.032 89.8174 42.9211 89.8374 42.8147C89.946 42.2649 90.1833 41.7461 90.3163 41.2006C90.4493 40.6552 90.4626 40.0411 90.1522 39.5711C89.6977 38.8815 88.751 38.7441 87.9196 38.6731C86.9773 38.5933 86.1348 38.6975 85.5318 37.9149C85.2495 37.5058 84.932 37.1223 84.5828 36.7686C84.4587 36.6533 83.2526 35.9173 83.2526 35.8685C82.0754 35.3233 80.7411 35.2209 79.4946 35.5803C78.8693 35.7621 78.2796 36.0592 77.6455 36.2077C76.2775 36.5314 74.7034 36.1811 73.5416 36.9637C72.8942 37.4072 72.5062 38.1122 72.1426 38.7995C71.847 39.3656 71.5469 39.931 71.2425 40.4956C70.7525 41.4246 70.2536 42.3691 70.0474 43.3978C70.0041 43.6217 69.9774 43.8484 69.9676 44.0762V44.0873C69.9676 44.1694 69.9676 44.2514 69.9676 44.3334V44.4376C69.9676 44.5152 69.9676 44.5906 69.9809 44.6593C69.9942 44.7281 69.992 44.7502 69.9987 44.7968C70.0053 44.8434 70.0164 44.9476 70.0297 45.0185C70.043 45.0895 70.0696 45.2136 70.0962 45.3112C70.1073 45.3533 70.1228 45.3932 70.1361 45.4331C70.1583 45.5085 70.1849 45.5817 70.2137 45.6548C70.2292 45.6925 70.2448 45.7324 70.2625 45.7701C70.2957 45.8477 70.3357 45.9231 70.3756 45.9918C70.3933 46.0229 70.4066 46.0517 70.4243 46.0805C70.4862 46.1836 70.5543 46.2828 70.6283 46.3776C71.1028 46.9696 71.8012 47.3465 72.3178 47.9008C72.3178 47.9229 72.3178 47.9451 72.3178 47.9651C72.3178 48.0271 72.3178 48.087 72.3178 48.1491C72.3452 49.3852 72.6742 50.596 73.2762 51.676C73.8782 52.756 74.735 53.6725 75.772 54.3459C75.772 54.4302 75.7831 54.5166 75.7875 54.6009C75.8308 55.259 75.8226 55.9195 75.7631 56.5763C75.6729 56.47 75.5599 56.3853 75.4324 56.3285C75.305 56.2717 75.1665 56.2443 75.0271 56.2482C74.9318 56.2435 74.8363 56.2517 74.7433 56.2726L74.7233 56.2571V56.277C74.2356 56.3967 73.6347 56.9045 73.0605 58.3478C73.0605 58.3478 71.3134 60.3166 69.9831 60.2346C68.6529 60.1525 65.2851 62.2832 65.2851 62.2832C65.2851 62.2832 61.9993 64.416 61.2943 66.5888C60.9002 67.8209 60.4277 69.0265 59.8797 70.1983L55.818 78.5679L55.0686 85.2081C55.0686 85.2081 55.4832 88.1613 55.4012 88.6114C55.3191 89.0615 57.1061 93.121 57.1061 93.121C57.1061 93.121 63.0103 103.495 65.4225 104.027L65.5955 103.905C65.6987 103.959 65.8081 104 65.9214 104.027L66.418 103.677C66.4478 104.067 66.4352 104.46 66.3803 104.847C66.0478 105.872 66.5045 112.556 67.0854 113.867C67.6662 115.177 67.4601 132.357 67.4601 132.357L67.378 133.874C67.378 133.874 67.378 133.923 67.398 134.007L67.378 134.366L67.4379 134.397C67.5 134.878 67.4798 135.366 67.378 135.84C67.1696 136.506 67.0854 138.386 67.0854 138.386C67.0854 138.386 65.4247 149.001 66.2118 151.134C66.9989 153.267 67.6685 155.604 67.6685 155.604C67.6685 155.604 68.4999 158.264 67.7084 158.719C66.9169 159.173 64.6665 159.936 65.1299 161.045C65.5511 162.069 67.1497 164.814 67.3869 165.215L67.3669 165.426L67.041 168.957C67.0938 169.424 67.2203 169.879 67.4157 170.305C67.7727 171.075 68.4666 171.873 69.7858 171.786C70.0075 171.771 70.2647 171.744 70.513 171.711C72.9275 171.387 75.9006 170.31 75.9006 170.31C75.7463 170.212 75.6047 170.095 75.4794 169.962C75.3607 169.847 75.2667 169.709 75.203 169.556C75.1393 169.404 75.1074 169.24 75.1091 169.075C75.1446 168.432 73.9407 165.368 73.6414 164.614C73.5948 164.505 73.5704 164.443 73.5704 164.443C73.5704 164.443 76.3152 161.574 75.8585 159.031C75.8585 159.031 72.821 157.258 73.821 156.284C74.8209 155.311 76.6079 152.515 76.6079 152.515C76.6079 152.515 76.6899 142.062 76.6079 140.501C76.5223 139.417 76.5737 138.328 76.7608 137.257C76.7941 137.095 76.834 136.938 76.8761 136.783C78.259 136.989 79.655 137.095 81.0532 137.1C81.5631 137.1 82.0819 137.1 82.6052 137.069C82.6052 137.216 82.6118 137.376 82.6251 137.548C82.7404 140.137 82.9555 144.678 83.1306 146.365C83.3789 148.784 84.7513 155.302 84.7513 155.302C84.7513 155.302 82.1329 156.983 85.2081 161.124C85.2081 161.124 85.2081 162.625 85.0041 162.843C84.7863 163.553 84.6109 164.275 84.4786 165.007C84.35 165.787 84.2968 166.576 84.5052 166.986C85.0041 167.966 87.9972 167.887 87.9972 167.887L88.0704 167.873C88.6354 167.815 89.2065 167.869 89.7503 168.033C90.2942 168.197 90.8001 168.468 91.2386 168.829C92.376 169.742 96.6927 169.341 99.0295 169.051C99.9452 168.935 100.557 168.829 100.557 168.829C100.587 168.725 100.597 168.617 100.588 168.51C100.564 167.935 100.114 166.676 97.063 165.552C97.063 165.552 94.194 163.623 94.2339 161.942H94.1741H93.8415C94.0832 161.929 94.2384 161.942 94.2384 161.942C94.2384 161.942 93.1143 157.841 93.5732 157.508C94.0322 157.176 92.6576 152.631 92.6576 152.631C92.6576 152.631 91.8705 145.004 91.8284 144.469C91.8301 144.011 91.8996 143.555 92.0346 143.117L91.8284 138.935C91.8284 138.935 91.7885 137.545 91.8284 137.093C91.8216 136.7 91.7898 136.309 91.733 135.92C91.7131 135.765 91.6931 135.603 91.6709 135.444C92.7462 135.171 93.4446 134.918 93.4446 134.918L93.3205 120.363C94.2339 118.589 94.4024 114.698 94.398 111.938C94.398 110.164 94.3182 108.851 94.3182 108.851L95.5664 106.814C95.5664 106.814 95.8546 104.375 95.3979 103.841C95.1962 103.599 95.2871 103.349 95.4533 103.142C95.5397 103.074 95.6308 103.012 95.726 102.956C95.726 102.956 95.7127 102.936 95.6972 102.907C95.7844 102.835 95.877 102.769 95.9744 102.71C95.9744 102.71 95.5309 102.023 95.9278 101.732C96.3003 101.985 96.6328 102.176 96.8856 102.331C96.8679 102.493 96.8501 102.586 96.8501 102.586L96.9565 102.364C97.2004 102.502 97.349 102.586 97.349 102.586C97.349 102.586 99.3045 98.6904 99.2623 98.1162C99.2202 97.5419 100.593 95.1231 100.593 95.1231C100.593 95.1231 100.759 93.8527 101.508 93.3206C102.258 92.7885 102.089 88.9329 102.089 88.9329C102.089 88.9329 102.298 86.9242 102.796 86.1039C103.295 85.2835 102.342 84.1772 102.342 84.1772ZM64.9259 82.4678L64.9636 83.3968C64.7419 83.0398 64.5822 82.7826 64.5822 82.7826L64.9259 82.4678Z" fill="url(#paint0_linear_30_362)"/>
<path d="M97.4556 100.903L96.9767 102.943C96.9767 102.943 93.1411 100.985 92.4493 98.4975C91.7576 96.0099 93.6067 95.0654 93.6067 95.0654L97.1807 96.5797L97.4556 100.903Z" fill="white"/>
<path opacity="0.1" d="M97.4556 100.903L96.9767 102.943C96.9767 102.943 93.1411 100.985 92.4493 98.4975C91.7576 96.0099 93.6067 95.0654 93.6067 95.0654L97.1807 96.5797L97.4556 100.903Z" fill="black"/>
<path d="M75.9295 170.323C75.9295 170.323 72.3821 171.627 69.9433 171.791C68.6485 171.877 67.9678 171.084 67.6175 170.319C67.4262 169.894 67.3027 169.441 67.2517 168.977L67.5688 165.463L67.7373 163.592L72.9187 162.246L73.6525 164.49L73.7212 164.661C74.0161 165.41 75.1978 168.459 75.1624 169.095C75.1609 169.258 75.1924 169.419 75.2549 169.57C75.3173 169.72 75.4096 169.857 75.526 169.971C75.6449 170.105 75.7805 170.223 75.9295 170.323Z" fill="white"/>
<path d="M100.16 168.536C100.169 168.643 100.159 168.75 100.129 168.853C100.129 168.853 92.5425 170.119 90.9905 168.853C90.5529 168.483 90.0429 168.209 89.493 168.048C88.9432 167.887 88.3658 167.842 87.7978 167.918C87.7978 167.918 84.8624 167.997 84.3724 167.031C84.1684 166.625 84.2216 165.838 84.348 165.062C84.4769 164.335 84.6487 163.616 84.8624 162.909L84.9799 162.816L85.6783 162.255L93.855 162.013H93.9171C93.8772 163.685 96.6929 165.603 96.6929 165.603C99.6838 166.711 100.125 167.964 100.16 168.536Z" fill="white"/>
<path opacity="0.1" d="M100.16 168.536C100.168 168.643 100.157 168.75 100.127 168.853C100.127 168.853 92.5423 170.119 90.9903 168.853C90.553 168.484 90.0433 168.21 89.4939 168.048C88.9445 167.887 88.3675 167.843 87.7999 167.918C87.7999 167.918 84.8622 167.997 84.3744 167.031C84.1704 166.623 84.2214 165.838 84.3478 165.062C85.4785 165.175 87.2633 165.457 87.9639 166.128C89.0237 167.15 90.8196 168.17 91.9215 168.25C92.7839 168.306 97.9432 168.47 100.16 168.536Z" fill="black"/>
<path opacity="0.1" d="M75.9296 170.323C75.9296 170.323 72.3822 171.627 69.9434 171.791C68.6486 171.877 67.968 171.084 67.6199 170.317C68.5222 170.62 69.7749 170.94 70.4334 170.647C71.2138 170.301 73.9808 170.077 75.5328 169.982C75.6509 170.111 75.7841 170.226 75.9296 170.323Z" fill="black"/>
<path d="M81.1928 65.2652C78.2662 64.1278 74.5016 60.3698 75.4416 58.6139C75.6504 58.1708 75.7745 57.6925 75.8075 57.2038C75.8679 56.5403 75.8768 55.8732 75.8341 55.2084C75.7682 54.1196 75.6371 53.0357 75.4416 51.9625C75.4416 51.9625 84.5784 52.1687 84.0463 53.5145C83.8911 53.9092 83.8667 54.5942 83.9088 55.3614C83.9509 56.1285 84.0618 56.9954 84.1771 57.7292C84.3367 58.7358 84.4963 59.5029 84.4963 59.5029C84.4963 59.5029 83.9376 60.2856 83.6095 60.3277C83.2813 60.3698 85.392 66.8859 81.1928 65.2652Z" fill="#CF6F80"/>
<path opacity="0.1" d="M73.7145 164.661L73.6458 164.736C70.9143 161.433 67.6108 165.55 67.6108 165.55L67.562 165.463L67.7305 163.592L72.9119 162.246L73.6458 164.49L73.7145 164.661Z" fill="black"/>
<path opacity="0.1" d="M93.9192 162.246C93.9192 162.246 91.9238 162.204 90.8596 163.144C89.7954 164.084 84.6517 163.348 84.8734 163.144C84.9391 163.043 84.9787 162.927 84.9887 162.807L85.6871 162.246L93.8638 162.005C93.8949 162.153 93.9192 162.246 93.9192 162.246Z" fill="black"/>
<path d="M77.1134 136.304C76.9648 136.671 76.852 137.052 76.7764 137.441C76.5915 138.507 76.5401 139.591 76.6234 140.669C76.7055 142.221 76.6234 152.622 76.6234 152.622C76.6234 152.622 74.8697 155.395 73.892 156.373C72.9142 157.351 75.8874 159.107 75.8874 159.107C76.3308 161.634 73.6436 164.49 73.6436 164.49C70.9122 161.186 67.6087 165.306 67.6087 165.306C67.6087 165.306 65.8128 162.202 65.3649 161.093C64.9171 159.985 67.1187 159.218 67.8924 158.768C68.6662 158.317 67.8548 155.664 67.8548 155.664C67.8548 155.664 67.2007 153.338 66.4247 151.216C65.6487 149.094 67.2805 138.532 67.2805 138.532C67.2805 138.532 67.3648 136.656 67.5665 136.002C67.6683 135.53 67.6886 135.044 67.6264 134.566C67.6131 134.404 67.5976 134.268 67.5865 134.178C67.5754 134.087 67.5665 134.044 67.5665 134.044L67.5976 133.991L68.7061 131.925C68.7061 131.925 77.6455 135.002 77.1134 136.304Z" fill="#981B1B"/>
<path d="M93.9192 162.002C93.9192 162.002 91.9237 161.96 90.8595 162.889C89.7953 163.818 84.6516 163.093 84.8733 162.889C85.095 162.685 85.0773 161.175 85.0773 161.175C82.0598 157.056 84.6339 155.384 84.6339 155.384C84.6339 155.384 83.2859 148.899 83.042 146.494C82.8713 144.813 82.6606 140.297 82.5476 137.718C82.4988 136.61 82.47 135.847 82.47 135.847L84.9354 135.35L85.2525 135.286L91.1987 134.093C91.1987 134.093 91.3628 135.202 91.4737 136.109C91.5289 136.496 91.56 136.886 91.5668 137.277C91.5269 137.72 91.5668 139.108 91.5668 139.108L91.7685 143.27C91.6367 143.706 91.5688 144.16 91.5668 144.616C91.6067 145.146 92.3805 152.733 92.3805 152.733C92.3805 152.733 93.7263 157.26 93.2673 157.586C92.8084 157.912 93.9192 162.002 93.9192 162.002Z" fill="#981B1B"/>
<path opacity="0.1" d="M84.0463 53.5145C83.8911 53.9092 83.8667 54.5942 83.9088 55.3614C82.685 56.0983 81.2781 56.4751 79.8497 56.4485C78.4214 56.4218 77.0295 55.9927 75.8341 55.2106C75.7683 54.121 75.6372 53.0364 75.4417 51.9625C75.4417 51.9625 84.5784 52.1643 84.0463 53.5145Z" fill="black"/>
<path d="M87.5783 48.6147C87.5801 49.4136 87.4544 50.2077 87.2058 50.967C86.6504 52.6684 85.5113 54.1186 83.9901 55.0613C82.4688 56.004 80.6632 56.3787 78.8924 56.1189C77.1216 55.8591 75.4997 54.9818 74.3133 53.6418C73.1268 52.3019 72.4523 50.5857 72.4088 48.7965C72.4088 48.7344 72.4088 48.6767 72.4088 48.6147C72.3916 47.6076 72.5751 46.6071 72.9486 45.6717C73.3221 44.7362 73.8781 43.8845 74.5842 43.1662C75.2904 42.4479 76.1324 41.8774 77.0613 41.488C77.9903 41.0986 78.9874 40.898 79.9947 40.898C81.0019 40.898 81.9991 41.0986 82.928 41.488C83.8569 41.8774 84.699 42.4479 85.4051 43.1662C86.1113 43.8845 86.6673 44.7362 87.0408 45.6717C87.4143 46.6071 87.5978 47.6076 87.5805 48.6147H87.5783Z" fill="#CF6F80"/>
<path opacity="0.1" d="M81.1928 65.2652C78.2662 64.1278 74.5016 60.3698 75.4416 58.6138C75.6504 58.1707 75.7745 57.6925 75.8075 57.2038L79.8138 60.4962L82.2925 62.5293L84.1771 57.7314C84.3367 58.738 84.4963 59.5051 84.4963 59.5051C84.4963 59.5051 83.9376 60.2878 83.6095 60.3299C83.2813 60.372 85.392 66.8859 81.1928 65.2652Z" fill="black"/>
<path d="M91.5535 79.8161L88.2078 136.02L83.8446 136.306L72.5461 103.717L74.3997 65.0258L74.7899 56.8513L79.8138 60.9773L82.2948 63.0104L84.2348 58.0729L87.842 61.2167L91.5535 79.8161Z" fill="#981B1B"/>
<path opacity="0.1" d="M77.1135 136.304C76.9649 136.671 76.8521 137.052 76.7765 137.441C73.6016 136.951 70.5181 135.988 67.6287 134.583L67.5688 134.552L67.5888 134.195L67.5999 134.009L68.7084 131.943C68.7084 131.943 77.6456 135.002 77.1135 136.304Z" fill="black"/>
<path opacity="0.1" d="M84.9865 137.45C84.1749 137.588 83.3563 137.681 82.5344 137.729C82.4856 136.621 82.4568 135.858 82.4568 135.858L84.9222 135.361L84.9865 137.45Z" fill="black"/>
<path opacity="0.1" d="M91.4605 136.12C89.8841 136.53 87.4497 136.991 85.2703 136.703L85.2393 135.297L91.1856 134.104C91.1856 134.104 91.3496 135.202 91.4605 136.12Z" fill="black"/>
<path opacity="0.1" d="M85.2303 136.96C76.1401 138.512 67.8148 134.062 67.8148 134.062L67.8946 132.555C67.8946 132.555 68.1008 115.463 67.5288 114.153C66.9568 112.842 66.5112 106.198 66.8349 105.178C67.1586 104.158 65.6531 88.8642 65.6531 88.8642L65.4093 82.6563L56.4832 79.0401L60.474 70.7215C61.013 69.5552 61.4766 68.3555 61.8619 67.1298C62.5558 64.9703 65.7773 62.8486 65.7773 62.8486C65.7773 62.8486 69.0808 60.729 70.3867 60.8088C71.6926 60.8886 73.4042 58.9331 73.4042 58.9331C74.6679 55.7117 75.812 57.1705 75.812 57.1705C75.812 57.3235 75.812 57.1705 75.7499 57.6472C75.3065 61.1835 82.92 72.3578 83.0287 72.5551L83.7537 90.2166L84.4875 112.567L85.2303 136.96Z" fill="black"/>
<path d="M84.9864 136.96C75.8963 138.512 67.5688 134.062 67.5688 134.062L67.6508 132.555C67.6508 132.555 67.857 115.463 67.2828 114.153C66.7085 112.842 66.2651 106.198 66.591 105.178C66.9169 104.158 65.4093 88.8642 65.4093 88.8642L65.1632 82.6562L56.2327 79.0268L60.2235 70.7082C60.7613 69.5414 61.2249 68.3418 61.6114 67.1165C62.3031 64.957 65.5268 62.8352 65.5268 62.8352C65.5268 62.8352 68.8303 60.7157 70.134 60.7955C71.4376 60.8753 73.1515 58.9198 73.1515 58.9198C74.4174 55.6984 75.812 57.1572 75.812 57.1572C75.812 57.3102 75.679 57.3789 75.7499 57.6339C76.7255 61.0638 82.6762 72.3445 82.7848 72.5418L83.5187 90.2033L84.2526 112.554L84.9864 136.96Z" fill="white"/>
<path opacity="0.1" d="M82.5364 73.0451C81.5587 72.6371 76.3795 66.7241 76.3795 66.7241V65.3783C76.191 64.9349 75.0714 65.2054 74.1624 65.5157L74.5526 57.3412L74.996 57.7093C75.9671 61.1369 82.4233 72.8477 82.5364 73.0451Z" fill="black"/>
<path d="M82.7825 72.5551C81.8025 72.1471 76.6234 66.2341 76.6234 66.2341V64.8883C76.4349 64.4449 75.3153 64.7154 74.4062 65.0258L74.7987 56.8513L75.2421 57.2193C76.2154 60.647 82.6739 72.36 82.7825 72.5551Z" fill="white"/>
<path opacity="0.1" d="M67.8148 102.045C67.9367 102.045 74.1358 101.393 74.1358 101.393C74.1358 101.393 77.8893 108.774 77.6432 110.57C77.3971 112.366 76.9515 113.955 75.4416 113.674C73.9318 113.392 67.3159 113.895 67.3159 113.895L67.8148 102.045Z" fill="black"/>
<path d="M67.5687 101.555C67.6906 101.555 73.8897 100.903 73.8897 100.903C73.8897 100.903 77.641 108.286 77.3971 110.08C77.1533 111.873 76.7032 113.465 75.1955 113.184C73.6879 112.902 67.0698 113.405 67.0698 113.405L67.5687 101.555Z" fill="white"/>
<path d="M72.2403 98.0896C72.2403 98.0896 77.9294 101.147 78.0514 102.08C78.1733 103.014 75.1558 101.672 74.504 101.511C74.075 101.407 73.6382 101.339 73.1981 101.307L68.8503 101.424L72.2403 98.0896Z" fill="#CF6F80"/>
<path opacity="0.1" d="M80.949 73.4264C81.2796 73.4264 81.5476 73.1584 81.5476 72.8278C81.5476 72.4972 81.2796 72.2292 80.949 72.2292C80.6183 72.2292 80.3503 72.4972 80.3503 72.8278C80.3503 73.1584 80.6183 73.4264 80.949 73.4264Z" fill="black"/>
<path d="M80.949 73.1825C81.2796 73.1825 81.5476 72.9145 81.5476 72.5839C81.5476 72.2533 81.2796 71.9853 80.949 71.9853C80.6183 71.9853 80.3503 72.2533 80.3503 72.5839C80.3503 72.9145 80.6183 73.1825 80.949 73.1825Z" fill="#3F3D56"/>
<path opacity="0.1" d="M82.051 99.34C82.3816 99.34 82.6496 99.072 82.6496 98.7414C82.6496 98.4108 82.3816 98.1428 82.051 98.1428C81.7204 98.1428 81.4524 98.4108 81.4524 98.7414C81.4524 99.072 81.7204 99.34 82.051 99.34Z" fill="black"/>
<path d="M82.051 99.0939C82.3816 99.0939 82.6496 98.8259 82.6496 98.4953C82.6496 98.1647 82.3816 97.8967 82.051 97.8967C81.7204 97.8967 81.4524 98.1647 81.4524 98.4953C81.4524 98.8259 81.7204 99.0939 82.051 99.0939Z" fill="#3F3D56"/>
<path opacity="0.1" d="M81.5454 86.3832C81.876 86.3832 82.144 86.1152 82.144 85.7846C82.144 85.454 81.876 85.186 81.5454 85.186C81.2148 85.186 80.9468 85.454 80.9468 85.7846C80.9468 86.1152 81.2148 86.3832 81.5454 86.3832Z" fill="black"/>
<path d="M81.5454 86.1393C81.876 86.1393 82.144 85.8713 82.144 85.5407C82.144 85.2101 81.876 84.9421 81.5454 84.9421C81.2148 84.9421 80.9468 85.2101 80.9468 85.5407C80.9468 85.8713 81.2148 86.1393 81.5454 86.1393Z" fill="#3F3D56"/>
<path d="M95.3449 101.182C95.3449 101.182 95.7528 101.794 95.3449 102.08C94.9369 102.366 95.3848 103.058 95.3848 103.058C95.3848 103.058 94.3671 103.655 94.815 104.191C95.2628 104.728 94.979 107.151 94.979 107.151L93.7552 109.177C93.7552 109.177 93.8284 110.483 93.8328 112.248C93.8328 115.002 93.671 118.873 92.7752 120.638L92.8994 135.118C92.8994 135.118 88.6137 136.683 85.0264 136.206L84.4943 112.971C84.4943 112.971 85.2703 99.7945 85.5563 97.267C85.7237 95.9549 85.7919 94.6319 85.7603 93.3095C85.7603 93.3095 85.6383 89.3542 85.2282 87.5184C85.2282 87.5184 84.7848 79.5656 84.7404 77.364C84.7205 76.3109 84.7759 73.2379 84.838 70.3158C84.9067 67.1209 84.9843 64.1079 84.9843 64.1079L84.175 57.7048C84.175 57.7048 84.9843 57.6228 85.2282 57.9487C85.3374 58.0508 85.4562 58.1421 85.5829 58.2214C86.9797 59.1659 91.915 62.0703 91.915 62.0703C91.915 62.0703 94.6465 63.1567 95.3005 64.7131C95.9546 66.2696 96.4091 67.3737 96.7261 67.8171C97.0432 68.2605 97.2161 70.3446 97.2161 70.3446C97.2161 70.3446 98.1562 74.1802 98.89 74.8298C99.6239 75.4795 100.16 79.6122 100.16 79.6122L93.6754 84.7115C93.6754 84.7115 93.1056 93.1942 92.9836 93.5223C92.8617 93.8505 95.3449 101.182 95.3449 101.182Z" fill="white"/>
<path d="M95.5909 101.182C95.5909 101.182 95.9966 101.794 95.5909 102.08C95.1851 102.366 95.6286 103.058 95.6286 103.058C95.6286 103.058 94.6176 103.661 95.061 104.198C95.5044 104.734 95.225 107.158 95.225 107.158L94.0012 109.184C94.0012 109.184 94.0744 110.49 94.081 112.255C94.081 115.008 93.9192 118.879 93.0234 120.644L93.1454 135.124C93.1454 135.124 88.8531 136.69 85.2702 136.213L84.7403 112.978C84.7403 112.978 85.5163 99.8012 85.8023 97.2737C85.9699 95.9615 86.0373 94.6385 86.0041 93.3161C86.0041 93.3161 85.8821 89.3608 85.4742 87.525C85.4742 87.525 85.0307 79.5722 84.9842 77.3706C84.9642 76.3175 85.0219 73.2446 85.0817 70.3224C85.1505 67.1276 85.2281 64.1145 85.2281 64.1145L84.1594 57.625C84.1594 57.625 85.2281 57.625 85.4742 57.9554C85.5824 58.0586 85.7013 58.1501 85.8289 58.2281C87.2257 59.1726 92.1632 62.077 92.1632 62.077C92.1632 62.077 94.8925 63.1634 95.5465 64.7198C96.2006 66.2762 96.6551 67.3803 96.9743 67.8238C97.2936 68.2672 97.4621 70.3513 97.4621 70.3513C97.4621 70.3513 98.4022 74.1869 99.136 74.8365C99.8699 75.4861 100.4 79.6099 100.4 79.6099L93.9147 84.7093C93.9147 84.7093 93.3449 93.192 93.2208 93.5201C93.0966 93.8482 95.5909 101.182 95.5909 101.182Z" fill="white"/>
<path opacity="0.1" d="M87.8243 65.9968L88.4096 67.704L85.3278 70.808C85.3966 67.6153 85.4742 64.6001 85.4742 64.6001L84.4055 58.1106C84.4055 58.1106 85.4742 58.1106 85.7203 58.4409C85.8282 58.5439 85.9471 58.6346 86.075 58.7114L88.6956 66.2718L87.8243 65.9968Z" fill="black"/>
<path d="M87.5782 65.5069L88.1658 67.214L85.084 70.318C85.1527 67.1231 85.2303 64.1101 85.2303 64.1101L84.1594 57.6206C84.1594 57.6206 85.2303 57.6206 85.4742 57.9509C85.5829 58.0536 85.7018 58.1449 85.8289 58.2236L88.4518 65.7818L87.5782 65.5069Z" fill="white"/>
<path opacity="0.1" d="M87.5783 48.6147C87.5801 49.4136 87.4544 50.2077 87.2058 50.967C87.164 50.9736 87.1212 50.9716 87.0801 50.9614C87.0389 50.9511 87.0003 50.9326 86.9664 50.9072C86.9088 48.9118 85.9266 47.0383 84.7182 45.4442C84.379 44.9629 83.9677 44.5366 83.4988 44.1804C83.0248 43.8244 82.4352 43.6576 81.8449 43.7126C81.1797 43.8035 80.5922 44.2558 79.9204 44.3135C79.0336 44.3866 78.2398 43.7725 77.3596 43.7414C77.0018 43.7448 76.6488 43.8245 76.3242 43.9752C75.9997 44.1258 75.7109 44.3439 75.4773 44.615C75.0149 45.162 74.6714 45.7993 74.4685 46.4862C74.1199 47.5279 73.9301 48.6162 73.9054 49.7144C73.8943 50.3351 73.8344 51.1134 73.258 51.3395C73.3014 50.8829 73.2495 50.4224 73.1056 49.9869C72.9617 49.5514 72.729 49.1506 72.4221 48.8098L72.4088 48.7965C72.4088 48.7344 72.4088 48.6767 72.4088 48.6147C72.3916 47.6076 72.5751 46.6071 72.9486 45.6717C73.3221 44.7362 73.8781 43.8845 74.5842 43.1662C75.2904 42.4479 76.1324 41.8774 77.0613 41.488C77.9903 41.0986 78.9874 40.898 79.9947 40.898C81.0019 40.898 81.9991 41.0986 82.928 41.488C83.8569 41.8774 84.699 42.4479 85.4051 43.1662C86.1113 43.8845 86.6673 44.7362 87.0408 45.6717C87.4143 46.6071 87.5978 47.6076 87.5805 48.6147H87.5783Z" fill="black"/>
<path d="M83.1352 36.5691C81.9831 36.0271 80.6727 35.9246 79.4503 36.2809C78.8362 36.4627 78.2575 36.7575 77.6345 36.9061C76.3042 37.2276 74.7523 36.8795 73.6104 37.6577C72.9763 38.1011 72.595 38.8017 72.2403 39.4824L71.3534 41.1718C70.8701 42.0963 70.3823 43.0364 70.1806 44.0541C69.9788 45.0717 70.1007 46.2113 70.7459 47.0294C71.216 47.6258 71.9099 48.0005 72.4198 48.5615C72.7253 48.9026 72.9571 49.3033 73.1005 49.7382C73.244 50.1731 73.296 50.633 73.2535 51.089C73.8322 50.8673 73.8876 50.0868 73.9009 49.466C73.9256 48.3678 74.1154 47.2796 74.464 46.2379C74.6664 45.5508 75.01 44.9134 75.4728 44.3667C75.7066 44.0958 75.9954 43.8778 76.3199 43.7272C76.6445 43.5766 76.9974 43.4968 77.3551 43.4931C78.242 43.5242 79.0379 44.1361 79.9159 44.0629C80.581 44.0075 81.1708 43.553 81.8404 43.4643C82.4307 43.4084 83.0207 43.5753 83.4943 43.9321C83.9631 44.2878 84.3737 44.7141 84.7115 45.1959C85.9221 46.79 86.9043 48.659 86.9619 50.6588C87.2124 50.8429 87.5738 50.6034 87.698 50.3196C87.8221 50.0358 87.8266 49.7033 87.984 49.4328C88.1658 49.1202 88.5139 48.9539 88.7866 48.7189C89.4783 48.1225 89.6513 47.1181 89.6247 46.2069C89.598 45.2956 89.4207 44.3711 89.5936 43.4754C89.6978 42.9255 89.9328 42.4112 90.0614 41.868C90.19 41.3248 90.2055 40.7151 89.9018 40.2473C89.4584 39.56 88.525 39.4247 87.7113 39.3604C86.7867 39.2806 85.9598 39.3826 85.37 38.6044C85.0932 38.1983 84.7816 37.817 84.4388 37.4648C84.3213 37.3495 83.1352 36.6179 83.1352 36.5691Z" fill="#512E4E"/>
<path opacity="0.1" d="M59.0373 83.3236L56.7204 79.0401L55.9866 85.6493C55.9866 85.6493 56.3945 88.5848 56.3125 89.0349C56.2305 89.485 57.9842 93.5201 57.9842 93.5201C57.9842 93.5201 63.7775 103.839 66.1432 104.371L74.1359 98.6594L72.0163 95.9678C72.0163 95.9678 71.2824 95.6818 71.0984 95.9678C71.0984 95.9678 67.163 89.1967 66.7551 88.7068C66.3471 88.2168 66.427 87.239 66.427 87.239C66.427 87.239 65.815 86.5872 66.019 85.9753C66.223 85.3633 64.8373 83.2416 64.8373 83.2416L66.101 82.0598L59.0373 83.3236Z" fill="black"/>
<path d="M56.8424 78.5524L56.2304 79.0401L55.4966 85.6494C55.4966 85.6494 55.9045 88.5848 55.8225 89.0349C55.7405 89.485 57.4964 93.5201 57.4964 93.5201C57.4964 93.5201 63.2875 103.839 65.6532 104.371L73.6481 98.6594L71.5263 95.9678C71.5263 95.9678 70.7925 95.6818 70.6084 95.9678C70.6084 95.9678 66.6731 89.1967 66.2651 88.7068C65.8572 88.2168 65.9392 87.239 65.9392 87.239C65.9392 87.239 65.3273 86.5872 65.5312 85.9753C65.7352 85.3633 64.3473 83.2416 64.3473 83.2416L65.6111 82.0598L56.8424 78.5524Z" fill="white"/>
<path opacity="0.1" d="M94.8149 104.444C95.2584 104.983 94.979 107.401 94.979 107.401L93.7552 109.428C93.7552 109.428 93.8283 110.736 93.8328 112.499L91.7753 113.142C91.5893 113.2 91.3922 113.212 91.2003 113.179C91.0084 113.145 90.8274 113.066 90.6722 112.948C90.5171 112.831 90.3924 112.677 90.3085 112.502C90.2246 112.326 90.184 112.132 90.19 111.938L90.5448 100.495L95.3448 102.331C94.9369 102.615 95.3847 103.311 95.3847 103.311C95.3847 103.311 94.3671 103.905 94.8149 104.444Z" fill="black"/>
<path d="M95.061 104.198C95.5044 104.736 95.2251 107.158 95.2251 107.158L94.0012 109.184C94.0012 109.184 94.0744 110.49 94.081 112.255L91.9859 112.909C91.8038 112.965 91.6108 112.978 91.423 112.945C91.2352 112.911 91.058 112.834 90.9062 112.719C90.7543 112.603 90.6323 112.453 90.5501 112.281C90.468 112.109 90.4281 111.92 90.4339 111.729L90.7908 100.251L95.5931 102.087C95.183 102.371 95.6308 103.065 95.6308 103.065C95.6308 103.065 94.6176 103.661 95.061 104.198Z" fill="white"/>
<path d="M96.6506 98.7436C96.6506 98.7436 96.3247 100.825 95.5088 100.947C94.6929 101.069 94.327 104.315 93.5134 104.2C92.6997 104.085 93.2384 101.182 93.2673 100.619C93.2961 100.056 92.3804 97.7237 93.0655 97.1939C93.7506 96.664 95.9189 97.1939 95.9189 97.1939L96.6506 98.7436Z" fill="#CF6F80"/>
<path opacity="0.1" d="M98.3868 82.7117L99.9254 79.6077C99.9254 79.6077 100.537 81.9734 100.537 83.2371C100.537 84.5009 101.393 84.625 101.393 84.625C101.393 84.625 102.331 85.7336 101.837 86.5406C101.342 87.3476 101.143 89.3563 101.143 89.3563C101.143 89.3563 101.304 93.1897 100.571 93.7196C99.8368 94.2495 99.6838 95.5155 99.6838 95.5155C99.6838 95.5155 98.3358 97.9211 98.3779 98.4931C98.42 99.0651 96.5022 102.938 96.5022 102.938C96.5022 102.938 97.4401 98.125 91.9749 96.0454C91.9749 96.0454 91.9327 94.4114 92.3407 93.9635C92.7486 93.5157 93.385 93.3117 92.9859 91.048C92.5868 88.7843 92.8706 86.0795 92.8706 85.5363C92.8706 84.9931 94.0944 81.6053 94.0944 81.6053L98.3868 82.7117Z" fill="black"/>
<path d="M99.0517 79.1643L100.395 79.6077C100.395 79.6077 101.009 81.9734 101.009 83.2371C101.009 84.5009 101.865 84.625 101.865 84.625C101.865 84.625 102.803 85.7336 102.309 86.5406C101.814 87.3476 101.617 89.3564 101.617 89.3564C101.617 89.3564 101.779 93.1897 101.045 93.7196C100.311 94.2495 100.147 95.5155 100.147 95.5155C100.147 95.5155 98.8012 97.9211 98.8433 98.4931C98.8854 99.0651 96.9654 102.938 96.9654 102.938C96.9654 102.938 97.9055 98.125 92.4381 96.0454C92.4381 96.0454 92.3982 94.4114 92.8061 93.9635C93.2141 93.5157 93.8504 93.3117 93.4513 91.048C93.0522 88.7843 93.336 86.0795 93.336 85.5363C93.336 84.9931 94.5599 81.6053 94.5599 81.6053L99.0517 79.1643Z" fill="white"/>
<path opacity="0.1" d="M69.3757 159.617C69.3757 159.617 71.5175 158.271 72.9231 159.249C74.3288 160.226 69.3757 159.617 69.3757 159.617Z" fill="black"/>
<path opacity="0.1" d="M86.0173 155.455C86.0173 155.455 87.913 155.211 89.5049 156.925C91.0967 158.639 86.0173 155.455 86.0173 155.455Z" fill="black"/>
<g opacity="0.1">
<path d="M88.7909 48.2333C88.5182 48.4683 88.1679 48.6368 87.9861 48.9494C87.8309 49.2177 87.8264 49.5481 87.7023 49.8363C87.5781 50.1245 87.2167 50.3595 86.9662 50.1777C86.9085 48.1823 85.9241 46.3089 84.7158 44.7125C84.378 44.2308 83.9674 43.8045 83.4986 43.4488C83.0241 43.092 82.4335 42.9252 81.8424 42.981C81.1773 43.0719 80.592 43.5242 79.9202 43.5796C79.0334 43.655 78.2374 43.0408 77.3572 43.0098C76.9995 43.0134 76.6467 43.0933 76.3225 43.2444C75.9982 43.3954 75.71 43.614 75.4771 43.8856C75.0143 44.4315 74.6707 45.0681 74.4683 45.7546C74.1199 46.7963 73.9301 47.8845 73.9052 48.9827C73.8919 49.6013 73.8342 50.3728 73.2622 50.6034C73.2755 50.7672 73.2755 50.9318 73.2622 51.0956C73.8387 50.8739 73.8963 50.0935 73.9096 49.4727C73.9343 48.3745 74.1242 47.2863 74.4728 46.2446C74.6751 45.5574 75.0187 44.9201 75.4815 44.3733C75.7149 44.1025 76.0033 43.8846 76.3275 43.7339C76.6516 43.5833 77.0042 43.5035 77.3617 43.4998C78.2485 43.5308 79.0467 44.1427 79.9246 44.0696C80.5898 44.0141 81.1795 43.5596 81.8469 43.471C82.4379 43.4152 83.0285 43.582 83.5031 43.9388C83.9718 44.2944 84.3824 44.7208 84.7203 45.2025C85.9286 46.7966 86.913 48.6657 86.9706 50.6655C87.2212 50.8495 87.5825 50.6101 87.7067 50.3263C87.8309 50.0425 87.8353 49.7099 87.9905 49.4394C88.1723 49.1268 88.5226 48.9605 88.7953 48.7255C89.487 48.1291 89.66 47.1248 89.6334 46.2135C89.6334 46.1847 89.6334 46.1559 89.6334 46.1293C89.5913 46.9186 89.3806 47.7234 88.7909 48.2333Z" fill="black"/>
<path d="M72.4242 48.0759C71.9142 47.515 71.218 47.1403 70.7502 46.5461C70.3563 46.0201 70.1313 45.3869 70.1051 44.7303C70.0353 45.5508 70.2644 46.3689 70.7502 47.0339C71.218 47.6303 71.9142 48.005 72.4242 48.5659C72.9138 49.1146 73.2077 49.8101 73.26 50.5436C73.294 50.0972 73.2374 49.6485 73.0938 49.2245C72.9502 48.8005 72.7224 48.4098 72.4242 48.0759Z" fill="black"/>
<path d="M90.0658 41.3824C89.935 41.9256 89.7022 42.4422 89.5958 42.9898C89.5328 43.3558 89.5097 43.7275 89.5271 44.0984C89.5345 43.8871 89.5575 43.6767 89.5958 43.4687C89.7022 42.9189 89.935 42.4045 90.0658 41.8613C90.1421 41.5617 90.1668 41.2513 90.139 40.9435C90.1252 41.0914 90.1008 41.2381 90.0658 41.3824Z" fill="black"/>
</g>
<path opacity="0.1" d="M29.4278 168.632C41.3591 168.632 51.0313 167.078 51.0313 165.162C51.0313 163.245 41.3591 161.692 29.4278 161.692C17.4965 161.692 7.82422 163.245 7.82422 165.162C7.82422 167.078 17.4965 168.632 29.4278 168.632Z" fill="#981B1B"/>
<path d="M30.124 98.6926H28.7339V129.992H30.124V98.6926Z" fill="#535461"/>
<path d="M38.8593 129.896L38.7728 131.306L38.6486 133.302L38.5977 134.131L38.4757 136.126L38.4225 136.956L38.2983 138.951L36.8971 161.581C36.8362 162.555 36.4066 163.469 35.6957 164.137C34.9847 164.805 34.046 165.177 33.0704 165.177H25.7849C24.8096 165.177 23.8711 164.805 23.1605 164.137C22.4499 163.468 22.0208 162.555 21.9604 161.581L20.5659 138.935L20.4417 136.94L20.3907 136.111L20.2666 134.115L20.2156 133.286L20.0914 131.291L20.0027 129.881C19.9873 129.609 20.0275 129.338 20.1209 129.082C20.2142 128.827 20.3588 128.594 20.5456 128.396C20.7325 128.199 20.9577 128.042 21.2075 127.934C21.4572 127.827 21.7263 127.772 21.9981 127.772H36.8993C37.1702 127.775 37.4376 127.832 37.6852 127.942C37.9328 128.052 38.1553 128.211 38.339 128.41C38.5226 128.609 38.6635 128.844 38.753 129.099C38.8425 129.355 38.8787 129.626 38.8593 129.896Z" fill="#3F3D56"/>
<path d="M38.7728 131.306L38.6486 133.295H20.2067L20.0825 131.306H38.7728Z" fill="#9D9CB5"/>
<path d="M38.5978 134.124L38.4758 136.115H20.382L20.2578 134.124H38.5978Z" fill="#9D9CB5"/>
<path d="M38.4225 136.947L38.3006 138.935H20.557L20.4329 136.947H38.4225Z" fill="#9D9CB5"/>
<path d="M17.9608 110.423C26.0555 116.281 29.4344 125.442 29.4344 125.442C29.4344 125.442 19.6791 125.107 11.5822 119.25C3.48527 113.392 0.113037 104.233 0.113037 104.233C0.113037 104.233 9.8639 104.566 17.9608 110.423Z" fill="#981B1B"/>
<path d="M0.106445 104.233C0.106445 104.233 10.2342 109.854 13.4823 114.507C16.7304 119.161 29.4344 125.442 29.4344 125.442" stroke="#535461" stroke-width="2" stroke-miterlimit="10"/>
<path d="M23.1866 98.6239C27.592 101.81 29.4344 106.796 29.4344 106.796C29.4344 106.796 24.1244 106.614 19.7168 103.428C15.3092 100.242 13.4712 95.2539 13.4712 95.2539C13.4712 95.2539 18.779 95.4357 23.1866 98.6239Z" fill="#981B1B"/>
<path d="M13.4712 95.2539C13.4712 95.2539 18.9829 98.3135 20.75 100.845C22.517 103.377 29.4344 106.796 29.4344 106.796" stroke="#535461" stroke-width="2" stroke-miterlimit="10"/>
<path d="M35.8308 106.543C30.7691 112.106 29.6982 119.376 29.6982 119.376C29.6982 119.376 36.8351 117.625 41.8924 112.06C46.9496 106.495 48.0249 99.227 48.0249 99.227C48.0249 99.227 40.8925 100.981 35.8308 106.543Z" fill="#981B1B"/>
<path d="M48.0293 99.2292C48.0293 99.2292 41.4356 104.932 39.7595 108.86C38.0834 112.789 29.6982 119.376 29.6982 119.376" stroke="#535461" stroke-width="2" stroke-miterlimit="10"/>
<path d="M221.638 104.586C221.638 104.586 217.978 86.3743 219.379 84.1084C219.379 84.1084 219.43 82.0022 219.346 79.3173C219.346 79.2153 219.346 79.1133 219.346 79.0091C219.592 79.1734 219.849 79.3216 220.115 79.4525C221.406 80.1158 222.888 80.3071 224.306 79.9935L223.197 78.7585C222.931 78.4637 222.654 78.1444 222.596 77.7542C222.539 77.364 222.698 77.0159 222.836 76.6678C223.889 74.0073 223.944 70.6617 221.916 68.6308C220.202 66.9236 219.785 64.7198 217.925 63.1612C216.566 62.0193 215.818 60.3454 215.113 58.7269C214.517 57.359 213.916 55.9799 213.575 54.5299C213.309 53.397 213.202 52.2241 212.836 51.1178C212.471 50.0115 211.786 48.9361 210.715 48.4417C210.333 48.2666 209.91 48.1668 209.562 47.934C209.105 47.6258 208.83 47.1248 208.5 46.6858C206.821 44.4687 201.201 45.7745 198.54 46.6747C197.817 46.9014 197.147 47.2725 196.572 47.7655L196.596 47.7256C196.616 47.6924 196.64 47.6591 196.663 47.6258C196.371 47.8613 196.12 48.142 195.918 48.4573C195.53 49.0714 195.368 49.7875 195.044 50.4527C194.654 51.2397 192.483 53.4369 193.417 54.3215C193.482 54.3809 193.557 54.4289 193.638 54.4634C193.989 54.6092 194.375 54.6478 194.747 54.5743L194.707 54.6696C194.388 55.4501 194.225 56.2853 194.226 57.1284C194.226 60.7711 197.23 63.7243 200.939 63.7243C201.637 63.725 202.33 63.618 202.995 63.4073C203.01 63.4915 203.023 63.5758 203.039 63.66C203.039 63.6933 203.05 63.7265 203.055 63.7598L202.937 63.9238C202.931 63.9137 202.924 63.9041 202.917 63.895L199.436 68.7594C198.904 69.1341 195.84 71.3512 195.667 73.014C195.485 74.8343 195.303 76.9649 195.303 76.9649L195.279 77.4216C195.127 77.5487 194.949 77.6413 194.758 77.693C194.566 77.7447 194.366 77.7542 194.171 77.7209C193.084 77.5436 193.084 81.7117 193.084 81.7117C193.084 81.7117 192.361 82.3769 191.865 81.8004C191.368 81.224 190.056 83.1773 190.056 83.1773L181.83 83.532L181.642 83.5431L181.198 82.1707C181.15 82.0259 181.048 81.9058 180.912 81.8365C180.776 81.7672 180.618 81.7542 180.473 81.8004C180.439 81.8117 180.405 81.8258 180.373 81.8426L180.342 81.8603L180.285 81.9002L180.256 81.9268C180.24 81.9412 180.225 81.9568 180.212 81.9734L180.185 82.0044L180.172 82.0177C180.12 82.0885 180.087 82.1703 180.073 82.2565C180.059 82.3428 180.065 82.4311 180.092 82.5143L180.473 83.6916C178.886 84.0109 177.263 84.911 178.586 87.3898L171.877 86.1504L174.048 87.9729L185.253 90.2853C185.105 90.5514 185.202 90.9372 185.666 91.4804C187.661 93.8238 191.297 94.4602 192.76 94.6242C193.147 95.4887 193.63 96.3068 194.199 97.063L194.073 99.3977C194.073 99.3977 190.368 117.192 189.69 118.095C190.032 117.707 190.346 117.294 190.628 116.86C189.552 120.516 188.049 125.52 187.654 126.269C187.02 127.466 186.433 132.311 187.156 132.621C187.377 132.716 188.011 132.67 188.916 132.601V133.002L188.876 148.21C188.876 148.21 189.058 157.537 188.559 158.426C188.06 159.315 187.927 161.18 187.927 161.18C187.927 161.18 185.932 164.858 184.351 166.337C184.34 166.348 184.328 166.359 184.315 166.368L184.267 166.022C184.267 166.022 182.367 168.421 178.163 168.286C178.163 168.286 175.633 169.931 179.385 170.019C183.136 170.108 187.927 169.886 187.927 169.886C187.927 169.886 191.273 164.787 194.075 165.452V169.317H194.933V165.39C195.331 165.128 195.672 164.788 195.934 164.391C196.197 163.993 196.376 163.546 196.461 163.078C196.534 162.594 196.48 162.1 196.305 161.644C196.129 161.188 195.837 160.786 195.459 160.477C195.289 160.323 195.152 160.136 195.058 159.927C194.964 159.718 194.914 159.491 194.911 159.262L194.88 159.289C194.88 159.211 194.86 159.131 194.851 159.049C194.605 157.054 194.297 152.937 195.386 149.89C196.878 145.713 197.33 139.895 196.244 136.432C195.893 135.325 195.605 134.199 195.381 133.06C195.354 132.916 195.33 132.779 195.308 132.65C196.051 132.75 196.786 132.899 197.51 133.093C200.026 133.787 205.531 133.916 210.231 133.878C210.242 134.007 210.256 134.142 210.271 134.277C210.355 135.217 210.53 136.147 210.794 137.053C211.384 138.827 211.655 146.647 211.655 146.647C211.655 146.647 212.415 153.076 212.001 155.692C211.779 157.147 211.557 158.608 211.431 160.076V160.104C211.431 160.104 210.185 163.652 209.274 165.579C209.251 165.627 209.227 165.676 209.205 165.723C208.962 165.745 208.723 165.798 208.493 165.88C208.493 165.88 207.271 168.319 206.054 168.722C204.837 169.126 205.241 170.454 207.996 169.966C210.752 169.478 214.914 169.079 214.914 169.079L215.093 166.592L215.94 165.532L215.719 168.013L216.621 167.836L216.501 164.818L217.887 163.084C217.887 163.084 219.561 161.594 217.073 158.663V158.728C217.047 158.686 217.022 158.641 216.993 158.599V158.586C216.581 157.947 216.253 156.757 216.854 154.644C217.94 150.826 218.572 147.361 218.572 147.361C218.572 147.361 220.998 138.077 218.082 133.685H218.211C217.912 133.067 217.701 132.411 217.583 131.734C217.568 131.654 217.555 131.572 217.543 131.488C219.701 131.364 221.818 130.974 223.545 130.131C223.538 130.122 222.499 108.093 221.638 104.586ZM194.25 89.2211V89.2655L193.807 89.2876L194.25 89.2211ZM192.729 89.4317C192.657 89.4479 192.588 89.4805 192.53 89.5271C192.339 89.7968 192.22 90.1102 192.182 90.4383L191.49 90.2831C191.49 90.2831 191.004 90.1789 190.306 90.0614L189.976 89.7288C190.885 89.6535 191.829 89.5426 192.729 89.4317Z" fill="url(#paint1_linear_30_362)"/>
<path d="M215.617 164.849L215.353 167.991L216.237 167.813L216.104 164.406L215.617 164.849Z" fill="#1D2366"/>
<path d="M195.434 149.932C194.368 152.97 194.669 157.069 194.909 159.06C194.997 159.796 195.079 160.244 195.079 160.244C195.079 160.244 193.485 163.876 193.352 164.013C193.219 164.151 188.661 166.933 188.661 166.933L185.475 168.793C185.475 168.793 182.242 167.377 183.792 166.889C184.109 166.762 184.394 166.567 184.628 166.319C186.18 164.845 188.129 161.18 188.129 161.18C188.129 161.18 188.262 159.32 188.75 158.435C189.237 157.55 189.06 148.254 189.06 148.254L189.098 133.1V131.125L195.161 131.169C195.2 131.84 195.287 132.506 195.423 133.164C195.641 134.3 195.923 135.422 196.268 136.525C197.336 139.982 196.893 145.771 195.434 149.932Z" fill="#FFB0B1"/>
<path opacity="0.1" d="M195.079 160.244C195.079 160.244 193.485 163.876 193.352 164.013C193.219 164.151 188.661 166.933 188.661 166.933L185.475 168.793C185.475 168.793 182.242 167.377 183.792 166.889C184.109 166.762 184.394 166.567 184.628 166.319L184.765 167.288L185.827 167.244L194.918 159.065C194.997 159.796 195.079 160.244 195.079 160.244Z" fill="black"/>
<path d="M194.969 159.271L185.827 167.505L184.765 167.55L184.544 165.998C184.544 165.998 182.686 168.388 178.557 168.255C178.557 168.255 176.079 169.893 179.752 169.982C183.426 170.07 188.118 169.849 188.118 169.849C188.118 169.849 191.395 164.749 194.137 165.414V169.266H194.98V165.379C195.371 165.115 195.706 164.775 195.962 164.379C196.219 163.983 196.393 163.538 196.474 163.073C196.547 162.594 196.495 162.104 196.324 161.65C196.153 161.197 195.868 160.795 195.496 160.484C195.33 160.328 195.198 160.14 195.107 159.932C195.016 159.723 194.969 159.498 194.969 159.271Z" fill="#1D2366"/>
<path d="M216.459 154.668C215.869 156.774 216.191 157.961 216.594 158.597V158.61C217.112 159.396 217.472 160.275 217.654 161.198L217.69 161.397L213.53 167.461L211.273 168.348C211.273 168.348 207.644 167.108 208.307 166.754C208.473 166.667 208.732 166.206 209.029 165.57C209.916 163.652 211.14 160.113 211.14 160.113V160.085C211.269 158.623 211.473 157.167 211.699 155.717C212.105 153.107 211.36 146.702 211.36 146.702C211.36 146.702 211.094 138.913 210.517 137.142C210.257 136.241 210.084 135.318 210.001 134.384C209.881 133.275 209.854 132.362 209.854 132.362C209.854 132.362 212.244 129.036 216.625 132.628C216.976 132.914 217.284 133.249 217.541 133.621C220.567 137.927 218.131 147.412 218.131 147.412C218.131 147.412 217.521 150.861 216.459 154.668Z" fill="#FFB0B1"/>
<path opacity="0.1" d="M217.696 161.397L213.537 167.461L211.28 168.348C211.28 168.348 207.65 167.108 208.313 166.754C208.48 166.667 208.739 166.206 209.036 165.57C210.573 165.556 211.369 167.02 211.369 167.02L213.315 166.709C213.315 166.709 215.883 161.663 216.459 161.355C217.035 161.047 216.548 159.051 216.548 159.051V158.544C216.563 158.561 216.577 158.581 216.594 158.599V158.612C217.112 159.398 217.472 160.277 217.654 161.2L217.696 161.397Z" fill="black"/>
<path d="M211.502 167.15C211.502 167.15 210.393 165.115 208.269 165.867C208.269 165.867 207.074 168.306 205.879 168.7C204.684 169.095 205.083 170.425 207.784 169.94C210.484 169.454 214.555 169.053 214.555 169.053L214.732 166.572L217.477 163.075C217.477 163.075 219.113 161.592 216.679 158.672V159.18C216.679 159.18 217.166 161.175 216.59 161.484C216.014 161.792 213.455 166.84 213.455 166.84L211.502 167.15Z" fill="#1D2366"/>
<path opacity="0.1" d="M195.168 131.164C195.206 131.835 195.294 132.502 195.43 133.16C192.933 132.794 190.616 132.976 189.098 133.096V131.12L195.168 131.164Z" fill="black"/>
<path opacity="0.1" d="M217.787 134.173C217.787 134.173 214.24 134.346 210.01 134.382C209.89 133.273 209.863 132.36 209.863 132.36C209.863 132.36 212.253 129.034 216.634 132.626C216.985 132.912 217.293 133.246 217.55 133.619C217.619 133.808 217.698 133.993 217.787 134.173Z" fill="black"/>
<path d="M217.787 133.774C217.787 133.774 202.25 134.526 197.514 133.198C192.778 131.87 188.084 133.02 187.377 132.712C186.67 132.404 187.244 127.577 187.865 126.382C188.486 125.187 191.891 113.102 191.891 113.102L195.168 96.0166L198.62 95.0654L198.864 94.9967L204.879 93.3383L209.287 92.1211C209.287 92.1211 218.051 126.338 217.299 128.861C217.026 129.827 216.982 130.843 217.171 131.83C217.286 132.503 217.493 133.157 217.787 133.774Z" fill="#1D2366"/>
<path d="M183.746 84.3324C183.746 84.3324 180.642 87.658 182.992 89.5115C185.342 91.3651 186.887 89.6889 186.887 89.6889L183.746 84.3324Z" fill="#C7DAF5"/>
<path opacity="0.1" d="M183.746 84.3324C183.746 84.3324 180.642 87.658 182.992 89.5115C185.342 91.3651 186.887 89.6889 186.887 89.6889L183.746 84.3324Z" fill="black"/>
<path d="M208.823 62.4672C208.823 62.4672 208.46 62.8131 207.912 63.323C207.132 64.0524 205.977 65.1189 204.952 66.0124C203.533 67.2473 202.363 68.1541 202.782 67.3803C203.201 66.6065 203.121 65.2585 202.913 63.997C202.897 63.9127 202.884 63.8285 202.868 63.7465C202.696 62.82 202.467 61.9048 202.183 61.0061C202.183 61.0061 204.476 58.044 205.744 56.8756C206.216 56.4322 206.546 56.2504 206.566 56.5586C206.589 56.9732 206.899 57.8888 207.285 58.8599C207.296 58.891 207.307 58.9198 207.32 58.9508C207.577 59.616 207.868 60.2988 208.123 60.8886C208.513 61.7932 208.823 62.4672 208.823 62.4672Z" fill="#FFB0B1"/>
<path opacity="0.1" d="M207.32 58.9509C207.105 60.1096 206.582 61.1892 205.807 62.0769C205.031 62.9646 204.032 63.6277 202.913 63.997C202.736 62.9849 202.493 61.9857 202.183 61.0061C202.183 61.0061 206.5 55.4301 206.566 56.5586C206.582 56.9865 206.919 57.9354 207.32 58.9509Z" fill="black"/>
<path opacity="0.1" d="M202.483 65.4869L203.041 64.6998C203.041 64.6998 203.411 66.9569 204.773 65.9614C206.134 64.9659 206.201 73.453 206.201 73.453L204.74 95.2982L194.182 94.6663L194.481 84.1107L195.676 78.7896L198.631 71.0541L200.39 68.4977L202.483 65.4869Z" fill="black"/>
<path d="M206.201 73.5882L204.87 93.3405L204.731 95.4335L198.844 95.0809L198.622 95.0676L194.188 94.8016L194.488 84.2437L195.683 78.9226L198.638 71.1871L200.396 68.6308L202.489 65.6088L203.048 64.824C203.048 64.824 203.418 67.081 204.779 66.0855L204.808 66.0656C206.138 65.223 206.201 73.5882 206.201 73.5882Z" fill="#1D2366"/>
<path d="M195.831 77.0735C195.831 77.0735 195.301 78.1821 194.237 78.0025C193.173 77.8229 193.175 81.9933 193.175 81.9933C193.175 81.9933 192.468 82.6585 191.98 82.082C191.492 81.5056 190.206 83.4544 190.206 83.4544L182.149 83.8091C182.149 83.8091 185.734 85.4476 185.031 90.4051C185.031 90.4051 197.203 89.6512 197.602 88.5005C198.002 87.3499 195.831 77.0735 195.831 77.0735Z" fill="white"/>
<path opacity="0.03" d="M195.831 77.0735C195.831 77.0735 195.301 78.1821 194.237 78.0025C193.173 77.8229 193.175 81.9933 193.175 81.9933C193.175 81.9933 192.468 82.6585 191.98 82.082C191.492 81.5056 190.206 83.4544 190.206 83.4544L182.149 83.8091C182.149 83.8091 185.734 85.4476 185.031 90.4051C185.031 90.4051 197.203 89.6512 197.602 88.5005C198.002 87.3499 195.831 77.0735 195.831 77.0735Z" fill="black"/>
<path d="M172.416 86.4142L174.54 88.2278L192.024 91.9016L189.856 89.6889L172.416 86.4142Z" fill="white"/>
<path d="M202.516 66.1853C202.225 66.6287 201.394 68.8991 200.7 70.8812C200.121 72.5329 199.638 73.9851 199.638 73.9851C199.638 73.9851 198.509 81.3326 197.933 82.6607C197.356 83.9887 197.669 89.1679 197.669 89.1679L195.521 101.958C195.521 101.958 194.547 108.554 193.044 112.494C191.561 116.372 189.909 118.19 189.858 118.248C190.523 117.347 194.148 99.6238 194.148 99.6238L195.346 77.2709C195.346 77.2709 195.521 75.1469 195.698 73.3311C195.875 71.5153 199.467 69.0365 199.467 69.0365L202.93 64.1123C203.278 64.5779 203.046 65.3894 202.516 66.1853Z" fill="white"/>
<path d="M193.485 94.9124C193.485 94.9124 188.386 94.6907 185.916 91.7242C183.446 88.7577 191.625 90.5403 191.625 90.5403L193.751 91.0281L193.485 94.9124Z" fill="#FFB0B1"/>
<path opacity="0.1" d="M217.299 128.863C217.026 129.829 216.982 130.846 217.171 131.832C211.608 132.226 205.657 130.723 205.657 130.723C204.549 131.743 201.629 133.246 201.629 133.246L200.037 113.514C199.019 110.853 198.62 96.9145 198.62 96.9145C198.62 96.9145 198.711 96.1851 198.842 95.092C198.842 95.0654 198.842 95.0366 198.853 95.01C199.25 91.957 200.037 86.2258 200.423 85.452C200.955 84.3878 198.786 81.5565 198.786 81.5565L199.773 73.1426L199.893 72.1272C201.972 71.1982 203.566 68.2317 203.566 68.2317L204.79 66.0877C206.121 65.2341 206.189 73.5993 206.189 73.5993L204.859 93.3516L209.267 92.1344C209.267 92.1344 218.051 126.34 217.299 128.863Z" fill="black"/>
<path d="M223.008 130.227C216.945 133.237 205.923 130.448 205.923 130.448C204.815 131.468 201.895 132.971 201.895 132.971L200.301 113.239C199.285 110.579 198.886 96.6396 198.886 96.6396C198.886 96.6396 200.168 86.2391 200.7 85.1771C200.855 84.8667 200.78 84.4055 200.596 83.9089C199.691 81.5451 199.358 79.0008 199.625 76.4838L200.05 72.8677L200.168 71.8545C202.25 70.9233 203.844 67.9568 203.844 67.9568L204.952 66.0146L206.992 62.4362L207.959 60.7423L208.123 60.8908L209.375 62.026C209.375 62.026 209.908 62.4694 210.706 63.1345C212.442 64.5978 215.441 67.1741 216.989 68.7505C218.35 70.1384 218.78 75.5371 218.905 79.6011C218.987 82.2771 218.938 84.3745 218.938 84.3745C217.565 86.6337 221.155 104.772 221.155 104.772C221.991 108.277 223.008 130.227 223.008 130.227Z" fill="white"/>
<path opacity="0.03" d="M211.369 67.9124C211.369 67.9124 207.207 75.8342 207.69 78.845C208.174 81.8559 209.548 85.2636 208.885 86.0595C208.658 86.3611 208.363 86.6058 208.025 86.7747C207.687 86.9435 207.314 87.0319 206.937 87.0328C206.271 87.0772 204.498 88.3165 204.498 88.4496C204.498 88.5826 202.859 88.5826 201.394 89.2034C199.928 89.8242 197.764 90.1767 197.764 90.1767C197.764 90.1767 193.552 90.0437 193.159 90.4427C192.767 90.8418 192.363 93.2296 193.204 95.1341C194.044 97.0387 194.977 98.4598 195.683 98.7192C196.388 98.9786 200.862 97.4799 204.491 97.1251C208.121 96.7704 212.06 93.8948 212.06 93.8948C212.06 93.8948 216.399 92.3428 217.16 89.7333C217.92 87.1237 216.231 72.7812 216.231 72.7812C216.231 72.7812 214.954 66.0966 211.369 67.9124Z" fill="black"/>
<path opacity="0.03" d="M210.837 67.2473C210.837 67.2473 206.675 75.1713 207.163 78.1799C207.651 81.1885 209.021 84.5984 208.356 85.3966C208.129 85.6985 207.835 85.9435 207.497 86.1124C207.159 86.2813 206.787 86.3695 206.409 86.3699C205.744 86.4142 203.97 87.6536 203.97 87.7866C203.97 87.9197 202.332 87.9197 200.866 88.5382C199.401 89.1568 197.237 89.5115 197.237 89.5115C197.237 89.5115 193.024 89.3785 192.634 89.7776C192.244 90.1767 191.836 92.5667 192.678 94.469C193.521 96.3713 194.452 97.7947 195.157 98.0541C195.862 98.3135 200.336 96.8147 203.966 96.4622C207.595 96.1097 211.535 93.2296 211.535 93.2296C211.535 93.2296 215.872 91.6777 216.623 89.0703C217.375 86.463 215.694 72.1161 215.694 72.1161C215.694 72.1161 214.422 65.4337 210.837 67.2473Z" fill="black"/>
<path d="M211.238 67.5133C211.238 67.5133 207.076 75.4373 207.564 78.4459C208.052 81.4546 209.422 84.8645 208.759 85.6604C208.532 85.963 208.238 86.2087 207.9 86.378C207.561 86.5473 207.188 86.6356 206.81 86.636C206.145 86.6803 204.371 87.9197 204.371 88.0505C204.371 88.1813 202.735 88.1835 201.267 88.8043C199.8 89.4251 197.638 89.7776 197.638 89.7776C197.638 89.7776 193.425 89.6446 193.033 90.0437C192.641 90.4427 192.237 92.8328 193.077 94.7351C193.918 96.6374 194.851 98.0607 195.556 98.3201C196.261 98.5795 200.735 97.0808 204.365 96.726C207.994 96.3713 211.934 93.4957 211.934 93.4957C211.934 93.4957 216.273 91.9437 217.033 89.3342C217.794 86.7246 216.115 72.3821 216.115 72.3821C216.115 72.3821 214.821 65.7086 211.238 67.5133Z" fill="white"/>
<path opacity="0.1" d="M211.147 88.7666C211.147 88.7666 207.821 88.1015 208.978 89.21C210.136 90.3186 210.129 91.2897 211.546 91.2453C212.963 91.201 211.147 88.7666 211.147 88.7666Z" fill="black"/>
<path opacity="0.1" d="M216.767 112.618C216.767 112.618 215.264 113.636 218.14 115.982C221.015 118.327 216.767 112.618 216.767 112.618Z" fill="black"/>
<path opacity="0.1" d="M213.898 120.983C213.898 121.117 213.366 125.861 215.357 127.047C217.348 128.233 213.898 120.983 213.898 120.983Z" fill="black"/>
<path d="M182.287 83.798C180.681 83.8535 177.214 84.3434 179.012 87.6979C180.602 90.6667 183.273 88.6823 184.776 87.1769C184.41 85.7734 183.519 84.564 182.287 83.798Z" fill="#FFB0B1"/>
<path opacity="0.1" d="M210.706 63.2698C209.003 64.4338 207.575 65.4159 207.296 65.6199C206.533 66.1853 205.079 69.5043 204.141 71.1982C203.394 72.5617 200.966 72.912 200.05 72.9985L200.168 71.9853C202.25 71.0541 203.844 68.0876 203.844 68.0876L207.959 60.8731L209.375 62.1612C209.375 62.1612 209.908 62.6046 210.706 63.2698Z" fill="black"/>
<path d="M210.706 63.1368C209.003 64.3007 207.575 65.2829 207.296 65.4891C206.533 66.0523 205.079 69.3713 204.141 71.0652C203.394 72.4287 200.966 72.779 200.05 72.8654L200.168 71.8522C202.25 70.921 203.844 67.9545 203.844 67.9545L207.959 60.7401L209.375 62.0238C209.375 62.0238 209.908 62.4627 210.706 63.1368Z" fill="#DCE7FF"/>
<path d="M207.429 57.4876C207.43 58.8185 207.026 60.1182 206.271 61.2145C205.38 62.5107 204.054 63.4445 202.533 63.8464C201.012 64.2483 199.398 64.0917 197.982 63.4051C196.567 62.7184 195.445 61.5472 194.819 60.1039C194.194 58.6606 194.106 57.0408 194.573 55.5385C195.039 54.0362 196.029 52.751 197.362 51.9159C198.695 51.0808 200.283 50.7512 201.838 50.987C203.394 51.2228 204.813 52.0083 205.839 53.201C206.864 54.3937 207.429 55.9145 207.429 57.4876Z" fill="#FFB0B1"/>
<path opacity="0.1" d="M218.904 79.6033C218.004 79.0494 217.271 78.2617 216.783 77.3241C216.412 76.5924 216.166 75.7477 215.534 75.2289C214.965 74.7633 214.204 74.6502 213.495 74.4418C211.162 73.7523 209.207 71.6239 209.134 69.1939C209.098 68.0499 209.455 66.9081 209.293 65.7751C209.201 65.1339 208.946 64.527 208.553 64.0125C208.357 63.7664 208.143 63.5359 207.912 63.323C207.602 63.0303 207.276 62.7465 206.992 62.4361C206.813 62.2439 206.657 62.032 206.526 61.8043C206.421 61.6179 206.335 61.421 206.271 61.2167C205.828 59.8599 206.231 58.2502 205.744 56.8778L205.717 56.8025C205.533 56.3147 205.158 55.8269 204.637 55.7892C204.116 55.7515 203.671 56.1839 203.174 56.3768C202.134 56.7803 201.012 56.093 200.145 55.3924C199.279 54.6918 198.301 53.8914 197.199 54.0466C196.469 54.1508 195.893 54.6474 195.221 54.9046C195.07 54.9633 194.913 55.0086 194.753 55.0399C195.322 53.622 196.366 52.4465 197.708 51.7151C199.049 50.9837 200.603 50.7423 202.102 51.0322C203.602 51.322 204.954 52.1252 205.926 53.3036C206.898 54.4821 207.429 55.9622 207.429 57.4898C207.429 57.951 207.381 58.4111 207.285 58.8622C207.296 58.8932 207.307 58.922 207.32 58.9531C207.577 59.6182 207.868 60.3011 208.123 60.8908L209.375 62.026C209.375 62.026 209.907 62.4694 210.706 63.1345C212.442 64.5978 215.441 67.1741 216.989 68.7505C218.35 70.1428 218.776 75.5393 218.904 79.6033Z" fill="black"/>
<path d="M195.144 50.854C195.461 50.2088 195.618 49.486 195.997 48.8741C196.554 47.9872 197.525 47.4196 198.523 47.076C201.128 46.1781 206.633 44.8744 208.278 47.076C208.602 47.5194 208.87 48.0116 209.318 48.3176C209.659 48.5504 210.072 48.6501 210.446 48.8253C211.495 49.3175 212.165 50.3906 212.521 51.4858C212.878 52.5811 212.985 53.7562 213.246 54.8847C213.581 56.3324 214.169 57.7048 214.754 59.0684C215.444 60.678 216.175 62.3475 217.506 63.4849C219.321 65.0368 219.723 67.234 221.408 68.9367C223.403 70.9587 223.339 74.2955 222.31 76.945C222.175 77.293 222.022 77.6566 222.075 78.0269C222.128 78.3972 222.403 78.7342 222.663 79.029L223.753 80.2595C221.173 80.8825 218.253 79.5345 217.051 77.1689C216.681 76.4372 216.435 75.5947 215.801 75.0737C215.233 74.6081 214.47 74.4973 213.763 74.2889C211.431 73.5971 209.475 71.4665 209.402 69.0365C209.367 67.8947 209.723 66.7529 209.562 65.6221C209.472 64.9766 209.216 64.3655 208.819 63.8485C208.209 63.0525 207.289 62.5182 206.792 61.6313C205.952 60.1481 206.591 58.2214 205.985 56.6295C205.799 56.1418 205.427 55.654 204.906 55.6163C204.385 55.5786 203.939 56.011 203.44 56.2039C202.403 56.6074 201.281 55.9223 200.414 55.2195C199.547 54.5166 198.569 53.7185 197.465 53.8759C196.736 53.9779 196.161 54.4745 195.49 54.7339C194.993 54.9246 193.986 55.0953 193.552 54.6763C192.634 53.8315 194.76 51.6432 195.144 50.854Z" fill="#591D4B"/>
<path opacity="0.1" d="M217.667 76.4372C217.295 75.7056 217.051 74.8631 216.417 74.3443C215.849 73.8787 215.087 73.7656 214.377 73.5572C212.047 72.8677 210.091 70.737 210.016 68.3071C209.981 67.1653 210.338 66.0212 210.178 64.8905C210.085 64.2491 209.829 63.6423 209.435 63.1279C208.823 62.332 207.903 61.7976 207.409 60.9108C206.568 59.4298 207.207 57.5031 206.6 55.909C206.415 55.4234 206.041 54.9357 205.522 54.8958C205.003 54.8559 204.553 55.2926 204.056 55.4855C203.019 55.889 201.895 55.2017 201.03 54.5011C200.165 53.8005 199.183 53.0001 198.081 53.1553C197.352 53.2595 196.775 53.7562 196.106 54.0133C195.609 54.204 194.6 54.377 194.166 53.9579C193.252 53.0711 195.379 50.8872 195.76 50.1024C196.077 49.455 196.235 48.7344 196.616 48.1225C196.636 48.0892 196.658 48.056 196.68 48.0227C196.395 48.259 196.149 48.5389 195.951 48.8519C195.572 49.4638 195.414 50.1822 195.097 50.8318C194.714 51.6166 192.587 53.8072 193.503 54.6873C193.946 55.1086 194.944 54.9357 195.441 54.745C196.106 54.4856 196.687 53.989 197.416 53.887C198.525 53.7296 199.5 54.5299 200.365 55.2305C201.23 55.9311 202.36 56.6185 203.394 56.2149C203.89 56.022 204.325 55.5875 204.857 55.6274C205.389 55.6673 205.744 56.1529 205.937 56.6406C206.542 58.2325 205.903 60.1592 206.744 61.6424C207.24 62.5138 208.16 63.0592 208.77 63.8596C209.167 64.3766 209.423 64.9877 209.513 65.6332C209.675 66.764 209.318 67.9058 209.353 69.0476C209.426 71.4864 211.382 73.6082 213.714 74.2999C214.417 74.5084 215.184 74.6192 215.752 75.0848C216.388 75.6058 216.639 76.4483 217.002 77.18C218.204 79.5456 221.124 80.8936 223.705 80.2706L223.19 79.6897C220.953 79.723 218.689 78.4504 217.667 76.4372Z" fill="black"/>
<path opacity="0.1" d="M202.383 66.3183C202.092 66.7617 201.261 69.0321 200.567 71.0142C199.917 70.7614 199.327 69.1496 199.327 69.1496L202.791 64.2231C203.145 64.7109 202.912 65.5202 202.383 66.3183Z" fill="black"/>
<path d="M202.516 66.1853C202.225 66.6287 201.394 68.899 200.7 70.8811C200.05 70.6306 199.46 69.0166 199.46 69.0166L202.924 64.0923C203.278 64.5779 203.046 65.3894 202.516 66.1853Z" fill="#DCE7FF"/>
<path d="M182.38 88.8353L180.46 82.7804C180.437 82.7095 180.429 82.6348 180.435 82.5606C180.441 82.4864 180.462 82.4142 180.496 82.3481C180.53 82.282 180.577 82.2232 180.634 82.1753C180.691 82.1274 180.757 82.0911 180.828 82.0687C180.971 82.0241 181.126 82.0377 181.258 82.1067C181.391 82.1756 181.492 82.2942 181.537 82.4367L183.457 88.485L183.267 89.751L182.38 88.8353Z" fill="#BE8B87"/>
<path opacity="0.1" d="M180.642 82.2483C180.785 82.203 180.94 82.2163 181.074 82.2853C181.207 82.3543 181.308 82.4733 181.353 82.6163L183.273 88.6646L183.129 89.6136L183.269 89.7599L183.46 88.4939L181.529 82.4456C181.483 82.3031 181.382 82.1845 181.25 82.1155C181.117 82.0466 180.962 82.033 180.819 82.0776C180.699 82.1166 180.595 82.1946 180.524 82.2993C180.562 82.2791 180.601 82.262 180.642 82.2483Z" fill="white"/>
<path d="M182.38 88.8353L183.457 88.4939L183.3 89.5315L183.267 89.7599L182.952 89.4317L182.38 88.8353Z" fill="#EFC8C4"/>
<path d="M182.952 89.4317C182.971 89.408 182.994 89.3884 183.021 89.3741C183.036 89.3642 183.054 89.359 183.073 89.359C183.091 89.359 183.109 89.3642 183.125 89.3741C183.14 89.3923 183.153 89.4125 183.163 89.434C183.177 89.4584 183.197 89.4793 183.221 89.495C183.245 89.5107 183.272 89.5209 183.3 89.5249L183.267 89.7466L182.952 89.4317Z" fill="#727A9C"/>
<path d="M180.449 84.931C180.449 84.931 184.3 84.9088 183.393 86.5473C182.486 88.1857 181.07 88.383 181.07 88.383L180.449 84.931Z" fill="#FFB0B1"/>
<path d="M156.497 11.4004H156.331C149.715 11.4004 143.864 14.9012 140.499 20.0671C137.133 14.9012 131.282 11.4004 124.666 11.4004H124.5C119.535 11.4477 114.789 13.4526 111.294 16.9793C107.799 20.506 105.837 25.2695 105.834 30.2348C105.834 36.4006 108.534 45.1493 113.8 52.3483C123.833 66.0656 140.499 78.0668 140.499 78.0668C140.499 78.0668 157.165 66.0678 167.195 52.3483C172.463 45.1493 175.161 36.4006 175.161 30.2348C175.158 25.2699 173.196 20.5067 169.702 16.98C166.207 13.4534 161.462 11.4483 156.497 11.4004ZM154.118 53.4036C153.365 53.4008 152.63 53.1701 152.01 52.742C151.39 52.3139 150.914 51.7083 150.644 51.0047H146.689C146.428 51.0031 146.175 50.9202 145.964 50.7676C145.753 50.6149 145.595 50.4002 145.511 50.1533L144.296 46.4929L140.452 59.9264C140.377 60.185 140.22 60.4123 140.005 60.5742C139.79 60.7361 139.528 60.8239 139.259 60.8243H139.182C138.901 60.8107 138.633 60.7012 138.423 60.5139C138.213 60.3267 138.074 60.0731 138.029 59.7956L134.067 35.966L131.171 50.0669C131.105 50.3348 130.951 50.5727 130.733 50.7426C130.516 50.9126 130.248 51.0049 129.972 51.0047H124.4C124.233 51.0118 124.066 50.985 123.91 50.926C123.754 50.8669 123.611 50.7768 123.49 50.6612C123.369 50.5455 123.273 50.4066 123.208 50.2528C123.142 50.0991 123.108 49.9336 123.108 49.7665C123.108 49.5993 123.142 49.4339 123.208 49.2801C123.273 49.1263 123.369 48.9874 123.49 48.8718C123.611 48.7561 123.754 48.666 123.91 48.607C124.066 48.5479 124.233 48.5211 124.4 48.5282H128.996L133.098 29.5697C133.165 29.2894 133.328 29.0412 133.558 28.8675C133.788 28.6938 134.071 28.6054 134.359 28.6175C134.647 28.6295 134.922 28.7412 135.137 28.9335C135.352 29.1258 135.493 29.3867 135.537 29.6716L139.583 53.9801L143.028 41.9611C143.1 41.708 143.252 41.4848 143.461 41.325C143.67 41.1652 143.925 41.0772 144.188 41.0743H144.212C144.473 41.0743 144.727 41.1567 144.938 41.3096C145.149 41.4625 145.306 41.6781 145.387 41.9256L147.584 48.5349H150.595C150.809 47.8845 151.199 47.3059 151.721 46.863C152.243 46.4201 152.878 46.13 153.554 46.0248C154.231 45.9197 154.923 46.0035 155.555 46.267C156.187 46.5305 156.734 46.9635 157.135 47.5182C157.537 48.0729 157.777 48.7277 157.83 49.4104C157.882 50.093 157.746 50.777 157.434 51.3867C157.123 51.9965 156.649 52.5084 156.065 52.8658C155.481 53.2233 154.81 53.4125 154.125 53.4125L154.118 53.4036Z" fill="#981B1B"/>
</g>
<defs>
<linearGradient id="paint0_linear_30_362" x1="79.0024" y1="171.798" x2="79.0024" y2="35.3696" gradientUnits="userSpaceOnUse">
<stop stop-color="#808080" stop-opacity="0.25"/>
<stop offset="0.54" stop-color="#808080" stop-opacity="0.12"/>
<stop offset="1" stop-color="#808080" stop-opacity="0.1"/>
</linearGradient>
<linearGradient id="paint1_linear_30_362" x1="198.084" y1="170.073" x2="198.084" y2="45.4708" gradientUnits="userSpaceOnUse">
<stop stop-color="#808080" stop-opacity="0.25"/>
<stop offset="0.54" stop-color="#808080" stop-opacity="0.12"/>
<stop offset="1" stop-color="#808080" stop-opacity="0.1"/>
</linearGradient>
<clipPath id="clip0_30_362">
<rect width="245" height="173.542" fill="white"/>
</clipPath>
</defs>
</svg>
