<svg width="899" height="645" viewBox="0 0 899 645" fill="none" xmlns="http://www.w3.org/2000/svg">
<path d="M303.005 113.774H23.3505C12.6855 113.774 4.00537 105.093 4.00537 94.4267C4.00537 83.7608 12.6855 75.0798 23.3505 75.0798H303.005C313.67 75.0798 322.35 83.7608 322.35 94.4267C322.35 105.093 313.67 113.774 303.005 113.774ZM23.3505 77.4713C14.0007 77.4713 6.3966 85.0761 6.3966 94.4267C6.3966 103.777 14.0007 111.382 23.3505 111.382H303.005C312.355 111.382 319.959 103.777 319.959 94.4267C319.959 85.0761 312.355 77.4713 303.005 77.4713H23.3505Z" fill="#E2E3E4"/>
<path d="M303.005 340.185H23.3503C13.0082 340.185 4.60303 331.779 4.60303 321.436C4.60303 311.093 13.0082 302.687 23.3503 302.687H303.005C313.347 302.687 321.752 311.093 321.752 321.436C321.752 331.779 313.347 340.185 303.005 340.185Z" fill="#F50057"/>
<path d="M211.361 37.4981H18.7473C8.40519 37.4981 0 29.0921 0 18.749C0 8.40597 8.40519 0 18.7473 0H211.361C221.703 0 230.108 8.40597 230.108 18.749C230.108 29.0921 221.703 37.4981 211.361 37.4981Z" fill="#E2E3E4"/>
<path d="M303.005 189.439H23.3505C12.6855 189.439 4.00537 180.758 4.00537 170.092C4.00537 159.427 12.6855 150.746 23.3505 150.746H303.005C313.67 150.746 322.35 159.427 322.35 170.092C322.35 180.758 313.67 189.439 303.005 189.439ZM23.3505 153.137C14.0007 153.137 6.3966 160.742 6.3966 170.092C6.3966 179.443 14.0007 187.048 23.3505 187.048H303.005C312.355 187.048 319.959 179.443 319.959 170.092C319.959 160.742 312.355 153.137 303.005 153.137H23.3505Z" fill="#E2E3E4"/>
<path d="M303.005 265.117H23.3505C12.6855 265.117 4.00537 256.436 4.00537 245.77C4.00537 235.104 12.6855 226.423 23.3505 226.423H303.005C313.67 226.423 322.35 235.104 322.35 245.77C322.35 256.436 313.67 265.117 303.005 265.117ZM23.3505 228.815C14.0007 228.815 6.3966 236.419 6.3966 245.77C6.3966 255.121 14.0007 262.726 23.3505 262.726H303.005C312.355 262.726 319.959 255.121 319.959 245.77C319.959 236.419 312.355 228.815 303.005 228.815H23.3505Z" fill="#E2E3E4"/>
<path d="M87.029 61.1854H13.7377C11.9879 61.1854 10.5693 62.6014 10.5693 64.3481C10.5693 66.0949 11.9879 67.5108 13.7377 67.5108H87.029C88.7789 67.5108 90.1974 66.0949 90.1974 64.3481C90.1974 62.6014 88.7789 61.1854 87.029 61.1854Z" fill="#E2E3E4"/>
<path d="M87.029 138.645H13.7377C11.9879 138.645 10.5693 140.061 10.5693 141.807C10.5693 143.554 11.9879 144.97 13.7377 144.97H87.029C88.7789 144.97 90.1974 143.554 90.1974 141.807C90.1974 140.061 88.7789 138.645 87.029 138.645Z" fill="#E2E3E4"/>
<path d="M87.029 216.116H13.7377C11.9879 216.116 10.5693 217.532 10.5693 219.279C10.5693 221.025 11.9879 222.441 13.7377 222.441H87.029C88.7789 222.441 90.1974 221.025 90.1974 219.279C90.1974 217.532 88.7789 216.116 87.029 216.116Z" fill="#E2E3E4"/>
<path d="M534.536 158.147L507.802 166.948V128.457H532.061L534.536 158.147Z" fill="#9F616A"/>
<path d="M511.114 139.111C525.826 139.111 537.753 127.184 537.753 112.47C537.753 97.7569 525.826 85.8294 511.114 85.8294C496.402 85.8294 484.476 97.7569 484.476 112.47C484.476 127.184 496.402 139.111 511.114 139.111Z" fill="#9F616A"/>
<path d="M518.431 109.828C513.972 109.696 511.042 105.188 509.309 101.075C507.575 96.9616 505.794 92.2385 501.657 90.5406C498.273 89.1535 492.307 98.54 489.641 96.0409C486.855 93.4342 489.569 80.054 492.522 77.6506C495.476 75.2472 499.517 74.7809 503.319 74.6015C512.597 74.1711 521.935 74.9244 531.033 76.8256C536.665 77.9974 542.451 79.7671 546.516 83.8325C551.658 88.9981 552.973 96.7823 553.343 104.064C553.726 111.514 553.296 119.31 549.673 125.827C546.05 132.343 538.47 137.15 531.201 135.488C530.471 131.542 531.213 127.489 531.499 123.471C531.774 119.465 531.488 115.137 529.037 111.944C526.597 108.752 521.361 107.484 518.515 110.318" fill="#2F2E43"/>
<path d="M551.203 119.059C553.869 117.11 557.062 115.472 560.338 115.878C563.877 116.309 566.878 119.226 567.786 122.682C568.695 126.137 567.679 129.94 565.479 132.762C563.291 135.584 560.027 137.449 556.583 138.382C554.587 138.92 552.399 139.147 550.498 138.334C547.7 137.126 546.182 133.551 547.281 130.705" fill="#2F2E43"/>
<path d="M449.265 369.719C447.483 378.472 450.748 386.472 456.534 387.584C462.321 388.696 468.455 382.49 470.224 373.737C470.977 370.245 470.858 366.634 469.877 363.191L491.913 225.981L464.354 220.791L453.713 360.094C451.453 362.916 449.935 366.216 449.265 369.731V369.719Z" fill="#9F616A"/>
<path d="M507.515 149.287H488.708C475.413 151.308 471.802 158.398 468.777 171.503C464.162 191.496 458.268 218.113 459.44 218.507C461.317 219.129 493.335 234.195 509.656 230.752L507.515 149.287Z" fill="#E2E3E4"/>
<path d="M525.701 586.338H500.665V621.863H525.701V586.338Z" fill="#9F616A"/>
<path d="M476.286 643.362C473.655 643.362 471.312 643.302 469.543 643.135C462.895 642.525 456.546 637.61 453.354 634.741C451.919 633.449 451.465 631.393 452.206 629.623C452.744 628.355 453.808 627.399 455.135 627.028L472.711 622.006L501.167 602.803L501.489 603.377C501.609 603.592 504.407 608.626 505.339 612.022C505.698 613.313 505.602 614.389 505.064 615.226C504.694 615.8 504.168 616.135 503.749 616.326C504.263 616.865 505.877 617.965 510.851 618.754C518.109 619.902 519.639 612.381 519.699 612.07L519.747 611.819L519.962 611.675C523.417 609.451 525.545 608.435 526.275 608.65C526.729 608.781 527.494 609.021 529.563 629.503C529.766 630.149 531.212 634.86 530.232 639.368C529.168 644.271 507.743 642.585 503.45 642.202C503.331 642.214 487.286 643.362 476.298 643.362H476.286Z" fill="#2F2E43"/>
<path d="M596.991 558.427L575.747 571.676L594.545 601.82L615.788 588.57L596.991 558.427Z" fill="#9F616A"/>
<path d="M568.779 638.495C565.838 638.495 563.136 638.137 561.211 637.802C559.322 637.467 557.839 635.96 557.528 634.071C557.313 632.708 557.707 631.333 558.64 630.317L570.895 616.757L584.884 585.405L585.458 585.716C585.673 585.835 590.706 588.621 593.301 591.013C594.293 591.922 594.784 592.89 594.76 593.883C594.748 594.576 594.485 595.126 594.222 595.521C594.939 595.712 596.888 595.784 601.527 593.823C608.294 590.965 605.616 583.767 605.496 583.468L605.401 583.229L605.508 583.002C607.266 579.283 608.521 577.298 609.262 577.095C609.729 576.963 610.494 576.76 623.084 593.058C623.598 593.488 627.316 596.728 628.87 601.069C630.556 605.792 611.486 615.705 607.648 617.642C607.529 617.737 587.574 632.242 579.372 636.367C576.12 638.005 572.27 638.507 568.767 638.507L568.779 638.495Z" fill="#2F2E43"/>
<path d="M544.137 289.259H474.038L467.677 354.474L495.511 595.437H531.296L516.985 456.266L575.032 581.913L606.835 559.649L561.51 442.348C561.51 442.348 577.698 340.161 564.977 314.704C552.255 289.259 544.137 289.259 544.137 289.259Z" fill="#2F2E43"/>
<path d="M579.013 293.229H467.677L501.083 149.287H549.589L579.013 293.229Z" fill="#E2E3E4"/>
<path d="M589.032 369.719C590.814 378.472 587.55 386.471 581.763 387.584C575.976 388.696 569.843 382.49 568.073 373.737C567.32 370.245 567.44 366.634 568.42 363.191L546.385 225.981L573.944 220.791L584.585 360.094C586.844 362.916 588.363 366.216 589.032 369.731V369.719Z" fill="#9F616A"/>
<path d="M530.782 149.287H549.589C562.884 151.308 566.495 158.398 569.52 171.503C574.135 191.496 580.029 218.113 578.858 218.507C576.981 219.129 544.962 234.195 528.642 230.752L530.782 149.287Z" fill="#E2E3E4"/>
</svg>
