<svg width="613" height="701" viewBox="0 0 613 701" fill="none" xmlns="http://www.w3.org/2000/svg">
<g clip-path="url(#clip0_1_5)">
<path d="M293.748 657.624L292.968 640.037C292.887 639.993 292.806 639.95 292.724 639.908C284.365 635.51 274.785 643.471 277.455 652.55C279.967 661.091 281.655 670.3 286.253 677.777C288.97 682.12 292.627 685.794 296.952 688.527C301.278 691.26 306.162 692.982 311.241 693.565L321.861 700.085C323.319 691.939 322.997 683.574 320.92 675.565C318.842 667.556 315.057 660.094 309.826 653.692C306.856 650.13 303.45 646.958 299.69 644.249C297.146 650.974 293.748 657.624 293.748 657.624Z" fill="#F2F2F2"/>
<path d="M198.665 479.144C178.218 458.002 148.589 445.876 117.373 445.876L116.169 445.88C95.6078 445.888 75.4137 440.42 57.6518 430.035L55.8035 428.955L57.2922 427.417C65.3515 419.057 72.081 409.504 77.2449 399.093C73.5774 402.522 69.2031 405.1 64.4316 406.645C59.6602 408.191 54.6082 408.666 49.6334 408.037C44.3811 407.409 39.3389 405.597 34.8848 402.736C30.4307 399.876 26.6804 396.041 23.9153 391.52C13.0051 373.771 0 348.587 0 329.401C0.0169834 313.184 3.40349 297.149 9.94369 282.317C16.4839 267.485 26.0343 254.182 37.9861 243.256C45.5527 236.415 51.5964 228.052 55.7233 218.713C59.8502 209.373 61.9675 199.266 61.9374 189.051L61.9313 187.597C61.9293 174.148 63.5684 160.749 66.8122 147.699L67.1416 146.382L68.4939 146.429C77.214 146.726 85.9388 145.994 94.488 144.245C86.4688 143.259 78.6239 141.167 71.1757 138.029L69.721 137.439L70.2147 135.944C104.247 114.816 181.067 125.757 225.656 23.4699C261.812 -59.4713 389.381 97.0969 389.381 187.597C389.381 196.832 380.266 209.035 387.089 215.138C460.85 281.118 409.956 323.486 393.91 366.118C390.103 376.233 398.358 387.337 398.358 398.281C398.358 400.137 398.311 402.054 398.217 403.977L398.075 406.934L395.616 405.294C390.751 402.098 386.241 398.389 382.164 394.23C386.394 403.99 388.387 414.577 387.997 425.212C387.608 435.846 384.845 446.258 379.912 455.68C372.182 470.309 364.704 480.781 357.685 486.805C335.201 506.097 306.217 516.048 276.658 514.624C247.1 513.2 219.2 500.508 198.665 479.144Z" fill="#E6E6E6"/>
<path d="M322.155 699.217C322.658 699.217 323.143 699.034 323.523 698.704C323.902 698.373 324.15 697.917 324.221 697.418C324.31 696.793 333.003 633.924 325.195 550.37C317.984 473.205 294.827 362.061 225.458 270.78C225.292 270.561 225.084 270.377 224.847 270.238C224.61 270.099 224.348 270.009 224.076 269.972C223.804 269.935 223.527 269.952 223.261 270.022C222.996 270.092 222.747 270.214 222.528 270.381C222.31 270.548 222.127 270.757 221.989 270.995C221.851 271.233 221.761 271.496 221.724 271.768C221.688 272.041 221.705 272.319 221.775 272.585C221.846 272.851 221.968 273.101 222.135 273.319C290.905 363.812 313.875 474.141 321.035 550.76C328.798 633.829 320.172 696.207 320.084 696.827C320.042 697.125 320.064 697.427 320.149 697.715C320.234 698.003 320.38 698.269 320.576 698.496C320.772 698.722 321.015 698.904 321.287 699.029C321.56 699.153 321.856 699.217 322.155 699.217Z" fill="#3F3D56"/>
<path d="M265.546 399.536C265.987 399.536 266.417 399.396 266.774 399.137C267.131 398.877 267.397 398.51 267.534 398.089C267.671 397.669 267.671 397.215 267.534 396.794C267.398 396.374 267.133 396.007 266.776 395.747C266.524 395.563 241.146 377.229 203.208 363.301C168.136 350.427 114.805 338.756 59.9012 356.277C59.6394 356.36 59.3965 356.494 59.1864 356.671C58.9763 356.848 58.8031 357.065 58.6767 357.31C58.5504 357.554 58.4734 357.821 58.45 358.096C58.4267 358.37 58.4576 358.646 58.5409 358.909C58.6241 359.171 58.7582 359.414 58.9354 359.625C59.1125 359.835 59.3293 360.008 59.5734 360.135C59.8174 360.261 60.0839 360.338 60.3575 360.361C60.6312 360.384 60.9067 360.352 61.1682 360.268C114.947 343.108 167.312 354.586 201.771 367.236C239.168 380.965 264.072 398.956 264.319 399.136C264.675 399.396 265.105 399.536 265.546 399.536Z" fill="#3F3D56"/>
<path d="M361.164 160.754C361.196 160.313 361.088 159.873 360.855 159.497C360.623 159.121 360.277 158.828 359.868 158.661C359.46 158.495 359.009 158.462 358.58 158.568C358.152 158.674 357.768 158.913 357.483 159.251C357.283 159.49 337.217 183.548 320.63 220.486C305.298 254.632 289.847 307.125 303.322 363.293C303.451 363.834 303.79 364.3 304.262 364.59C304.735 364.88 305.303 364.97 305.841 364.84C306.38 364.71 306.845 364.371 307.134 363.897C307.424 363.424 307.513 362.854 307.384 362.314C294.186 307.296 309.375 255.756 324.44 222.206C340.791 185.795 360.481 162.186 360.678 161.952C360.962 161.614 361.133 161.195 361.164 160.754Z" fill="#3F3D56"/>
<path d="M358.337 268.766C360.099 283.025 369.954 294.782 384.284 294.782C391.166 294.782 397.766 292.041 402.632 287.162C407.498 282.283 410.231 275.666 410.231 268.766C410.231 254.397 398.553 244.078 384.284 242.749C369.144 241.34 356.074 250.458 358.337 268.766Z" fill="#2F2E41"/>
<path d="M396.302 687.759L406.183 687.758L410.883 649.544L396.3 649.545L396.302 687.759Z" fill="#FFB6B6"/>
<path d="M395.955 698.093L426.34 698.092V697.707C426.34 694.562 425.094 691.546 422.876 689.322C420.658 687.098 417.65 685.849 414.513 685.849L408.962 681.627L398.607 685.85L395.954 685.85L395.955 698.093Z" fill="#2F2E41"/>
<path d="M357.381 687.759L367.262 687.758L371.962 649.544L357.379 649.545L357.381 687.759Z" fill="#FFB6B6"/>
<path d="M357.033 698.093L387.419 698.092V697.707C387.419 694.562 386.173 691.546 383.955 689.322C381.737 687.098 378.729 685.849 375.592 685.849L370.041 681.627L359.685 685.85L357.033 685.85L357.033 698.093Z" fill="#2F2E41"/>
<path d="M430.305 448.417L437.291 472.433L429.061 574.141C429.061 574.141 433.299 580.5 430.305 580.5C427.311 580.5 423.472 581.91 425.891 585.708C428.309 589.506 420.042 603.14 420.042 603.14L408.349 675.56L393.451 675.339C393.451 675.339 385.876 671.108 390.127 666.83C394.378 662.551 397.372 662.551 393.38 658.549C389.388 654.546 389.388 655.752 389.388 652.648C389.388 649.543 385.388 611.606 394.873 597.054L392.015 537.721L385.284 595.919L371.424 673.558L357.072 673.44C357.072 673.44 350.442 667.033 350.455 662.291C350.467 657.548 354.55 657.154 351.511 654.35C348.471 651.545 348.471 608.455 357.453 584.503C357.453 584.503 362.533 571.12 357.441 566.535C352.349 561.949 357.435 556.702 357.435 556.702C357.435 556.702 365.5 553.779 357.428 545.356C349.355 536.933 357.384 477.364 357.384 477.364C357.384 477.364 348.559 453.319 357.497 443.864C366.435 434.409 430.305 448.417 430.305 448.417Z" fill="#2F2E41"/>
<path d="M305.883 489.793L318.347 459.592L328.167 465.062L322.236 495.784C322.83 497.73 322.871 499.804 322.354 501.773C321.837 503.741 320.782 505.526 319.309 506.926C317.836 508.326 316.002 509.287 314.014 509.699C312.026 510.112 309.963 509.961 308.056 509.262C306.149 508.564 304.475 507.346 303.221 505.745C301.966 504.145 301.182 502.225 300.956 500.202C300.731 498.18 301.072 496.134 301.942 494.295C302.813 492.456 304.177 490.897 305.883 489.793Z" fill="#FFB6B6"/>
<path d="M515.033 250.973L496.068 277.557L487.74 269.998L500.459 241.422C500.32 239.391 500.749 237.362 501.697 235.563C502.646 233.763 504.076 232.264 505.828 231.235C507.579 230.206 509.582 229.687 511.611 229.737C513.641 229.786 515.616 230.402 517.316 231.516C519.015 232.629 520.371 234.196 521.231 236.04C522.091 237.884 522.421 239.932 522.183 241.953C521.946 243.975 521.151 245.89 519.888 247.483C518.625 249.076 516.944 250.285 515.033 250.973Z" fill="#FFB6B6"/>
<path d="M432.187 450.88C444.488 470.01 382.656 494.287 358.931 484.541C354.777 482.834 340.486 477.197 350.254 469.382C360.022 461.566 349.122 460.466 348.864 455.379C348.692 451.978 351.318 444.516 348.578 444.836C345.838 445.156 342.63 440.452 348.598 438.428C354.567 436.404 348.662 434.558 348.715 432.637C349.285 411.668 365.331 378.316 365.331 378.316L336.418 452.419C336.418 452.419 336.632 465.239 332.945 461.321C329.258 457.404 329.526 470.084 329.526 470.084C329.526 470.084 324.044 473.92 327.196 476.055C330.349 478.19 323.802 484.754 323.802 484.754L308.527 483.66C308.527 483.66 308.766 472.282 311.374 469.766C313.982 467.25 312.701 463.291 312.701 463.291C312.701 463.291 319.492 457.263 314.939 452.37C309.084 446.075 330.432 339.769 337.799 340.822C338.841 335.739 341.264 331.044 344.8 327.256C348.337 323.468 352.849 320.734 357.839 319.357L374.338 314.802L377.267 303.147H400.499L404.545 310.805L422.207 318.797C425.534 314.091 428.02 309.131 441.643 307.523C441.643 307.523 478.352 274.036 476.559 271.421C474.767 268.806 480.457 262.684 480.457 262.684C480.457 262.684 485.317 261.089 482.575 260.238C479.833 259.387 485.016 257.418 485.016 257.418C485.016 257.418 489.816 256.153 487.552 254.488C485.288 252.822 495.108 251.728 495.108 251.728L507.85 262.152L505.274 266.53C505.274 266.53 506.845 272.492 504.795 270.315C502.746 268.139 502.36 274.455 502.36 274.455C502.36 274.455 501.314 281.371 495.108 283.455C488.903 285.539 484.197 305.335 484.197 305.335C469.562 324.414 452.291 339.298 431.823 349.096C439.8 358.276 432.187 450.88 432.187 450.88Z" fill="#F50057"/>
<path d="M387.152 296.327C399.86 296.327 410.161 285.998 410.161 273.257C410.161 260.515 399.86 250.186 387.152 250.186C374.445 250.186 364.143 260.515 364.143 273.257C364.143 285.998 374.445 296.327 387.152 296.327Z" fill="#FFB6B6"/>
<path d="M363.327 275.77C364.055 280.783 368.316 287.778 367.318 287.778C366.321 287.778 359.225 267.111 366.321 265.764C371.467 264.786 372.618 265.644 377.428 263.552L376.749 264.193C379.933 266.514 384.364 265.083 387.997 263.572C391.639 262.071 396.06 260.641 399.254 262.952C401.26 264.403 402.108 266.924 403.355 269.066C404.603 271.217 406.908 273.248 409.283 272.588C411.19 272.058 412.287 269.916 412.277 267.935C412.267 265.954 409.694 264.069 410.561 262.292C413.129 257.024 410.819 253.433 405.222 250.954C403.186 250.644 401.15 250.327 399.114 250.004C400.181 248.522 401.474 247.219 402.946 246.141C402.324 244.543 401.249 243.162 399.853 242.169C398.226 241.198 396.21 241.268 394.324 241.368C390.112 241.589 385.904 241.809 381.699 242.029C378.586 242.189 375.362 242.379 372.578 243.81C369.105 245.601 366.83 249.093 365.173 252.646C361.46 260.631 362.049 267.055 363.327 275.77Z" fill="#2F2E41"/>
<path d="M267.61 700.693L493.902 701C494.217 701 494.519 700.875 494.742 700.651C494.965 700.428 495.09 700.125 495.09 699.809C495.09 699.493 494.965 699.19 494.742 698.966C494.519 698.743 494.217 698.617 493.902 698.617L267.61 698.31C267.295 698.31 266.993 698.435 266.77 698.659C266.547 698.882 266.422 699.185 266.422 699.501C266.422 699.817 266.547 700.12 266.77 700.344C266.993 700.567 267.295 700.693 267.61 700.693Z" fill="#CACACA"/>
<path d="M185.766 596.836C186.183 593.962 183.18 591.144 179.059 590.542C174.937 589.941 171.258 591.784 170.84 594.659C170.423 597.534 173.426 600.352 177.548 600.953C181.67 601.554 185.349 599.711 185.766 596.836Z" fill="#E6E6E6"/>
<path d="M234.838 592.035C235.255 589.161 232.252 586.343 228.131 585.741C224.009 585.14 220.33 586.983 219.913 589.858C219.495 592.733 222.498 595.551 226.62 596.152C230.742 596.753 234.421 594.91 234.838 592.035Z" fill="#3F3D56"/>
<path d="M172.329 557.003C172.746 554.128 169.743 551.311 165.621 550.709C161.5 550.108 157.82 551.951 157.403 554.826C156.986 557.701 159.989 560.519 164.111 561.12C168.232 561.721 171.912 559.878 172.329 557.003Z" fill="#FF6584"/>
<path d="M151.006 540.687C151.026 538.048 149.557 535.897 147.726 535.883C145.895 535.869 144.395 537.998 144.375 540.637C144.355 543.276 145.823 545.427 147.654 545.441C149.485 545.454 150.986 543.326 151.006 540.687Z" fill="#E6E6E6"/>
<path d="M143.775 510.297C143.794 507.657 142.326 505.507 140.495 505.493C138.664 505.479 137.164 507.607 137.144 510.246C137.124 512.885 138.592 515.036 140.423 515.05C142.254 515.064 143.755 512.936 143.775 510.297Z" fill="#3F3D56"/>
<path d="M200.006 563.782C200.026 561.143 198.557 558.992 196.726 558.978C194.895 558.964 193.395 561.092 193.375 563.732C193.355 566.371 194.823 568.521 196.654 568.535C198.485 568.549 199.986 566.421 200.006 563.782Z" fill="#E6E6E6"/>
<path d="M176.292 575.653C176.312 573.014 174.844 570.863 173.013 570.85C171.181 570.836 169.681 572.964 169.661 575.603C169.641 578.242 171.109 580.393 172.94 580.407C174.772 580.421 176.272 578.293 176.292 575.653Z" fill="#FF6584"/>
<path d="M209.302 597.595C209.322 594.956 207.854 592.805 206.023 592.791C204.192 592.777 202.691 594.905 202.671 597.544C202.652 600.184 204.12 602.334 205.951 602.348C207.782 602.362 209.283 600.234 209.302 597.595Z" fill="#3F3D56"/>
<path d="M563.002 442.74C563.419 439.865 560.416 437.047 556.294 436.446C552.173 435.845 548.493 437.688 548.076 440.563C547.659 443.437 550.662 446.255 554.784 446.857C558.905 447.458 562.585 445.615 563.002 442.74Z" fill="#E6E6E6"/>
<path d="M612.074 437.939C612.491 435.064 609.488 432.246 605.366 431.645C601.245 431.044 597.565 432.887 597.148 435.762C596.731 438.636 599.734 441.454 603.856 442.055C607.977 442.657 611.657 440.814 612.074 437.939Z" fill="#3F3D56"/>
<path d="M549.563 402.907C549.981 400.032 546.978 397.214 542.856 396.613C538.734 396.012 535.055 397.855 534.638 400.73C534.221 403.604 537.224 406.422 541.345 407.024C545.467 407.625 549.146 405.782 549.563 402.907Z" fill="#FF6584"/>
<path d="M528.241 386.591C528.261 383.951 526.793 381.801 524.962 381.787C523.131 381.773 521.63 383.901 521.61 386.54C521.59 389.18 523.059 391.33 524.89 391.344C526.721 391.358 528.221 389.23 528.241 386.591Z" fill="#E6E6E6"/>
<path d="M521.01 356.2C521.03 353.561 519.562 351.41 517.731 351.396C515.9 351.382 514.399 353.511 514.379 356.15C514.359 358.789 515.827 360.94 517.659 360.954C519.49 360.967 520.99 358.839 521.01 356.2Z" fill="#3F3D56"/>
<path d="M577.241 409.685C577.261 407.046 575.793 404.896 573.962 404.882C572.131 404.868 570.63 406.996 570.61 409.635C570.59 412.274 572.059 414.425 573.89 414.439C575.721 414.453 577.221 412.325 577.241 409.685Z" fill="#E6E6E6"/>
<path d="M553.528 421.557C553.548 418.918 552.079 416.767 550.248 416.753C548.417 416.739 546.917 418.867 546.897 421.507C546.877 424.146 548.345 426.297 550.176 426.31C552.007 426.324 553.508 424.196 553.528 421.557Z" fill="#FF6584"/>
<path d="M586.538 443.498C586.558 440.859 585.09 438.708 583.259 438.695C581.427 438.681 579.927 440.809 579.907 443.448C579.887 446.087 581.355 448.238 583.186 448.252C585.018 448.266 586.518 446.137 586.538 443.498Z" fill="#3F3D56"/>
<path d="M380.372 157.561C380.789 154.687 377.786 151.869 373.664 151.267C369.543 150.666 365.863 152.509 365.446 155.384C365.029 158.259 368.032 161.077 372.154 161.678C376.275 162.279 379.955 160.436 380.372 157.561Z" fill="white"/>
<path d="M429.444 152.76C429.861 149.886 426.858 147.068 422.736 146.466C418.615 145.865 414.935 147.708 414.518 150.583C414.101 153.458 417.104 156.276 421.226 156.877C425.347 157.478 429.027 155.635 429.444 152.76Z" fill="#3F3D56"/>
<path d="M366.934 117.728C367.352 114.854 364.349 112.036 360.227 111.434C356.105 110.833 352.426 112.676 352.009 115.551C351.592 118.426 354.595 121.244 358.716 121.845C362.838 122.446 366.517 120.603 366.934 117.728Z" fill="#FF6584"/>
<path d="M345.611 101.412C345.631 98.773 344.163 96.6222 342.332 96.6083C340.501 96.5944 339 98.7227 338.98 101.362C338.96 104.001 340.429 106.152 342.26 106.166C344.091 106.18 345.591 104.051 345.611 101.412Z" fill="#E6E6E6"/>
<path d="M338.38 71.0215C338.4 68.3823 336.932 66.2316 335.101 66.2177C333.27 66.2038 331.769 68.332 331.749 70.9712C331.729 73.6104 333.198 75.7611 335.029 75.775C336.86 75.7889 338.36 73.6607 338.38 71.0215Z" fill="#3F3D56"/>
<path d="M394.611 124.507C394.631 121.868 393.163 119.717 391.332 119.703C389.501 119.689 388 121.817 387.98 124.457C387.961 127.096 389.429 129.247 391.26 129.26C393.091 129.274 394.592 127.146 394.611 124.507Z" fill="#E6E6E6"/>
<path d="M370.898 136.378C370.918 133.739 369.449 131.588 367.618 131.575C365.787 131.561 364.287 133.689 364.267 136.328C364.247 138.967 365.715 141.118 367.546 141.132C369.377 141.146 370.878 139.017 370.898 136.378Z" fill="#FF6584"/>
<path d="M403.908 158.32C403.928 155.681 402.46 153.53 400.629 153.516C398.798 153.502 397.297 155.63 397.277 158.269C397.257 160.909 398.725 163.059 400.557 163.073C402.388 163.087 403.888 160.959 403.908 158.32Z" fill="#3F3D56"/>
</g>
<defs>
<clipPath id="clip0_1_5">
<rect width="612.112" height="701" fill="white"/>
</clipPath>
</defs>
</svg>
